<svg width="393" height="400" viewBox="0 0 393 400" fill="none" xmlns="http://www.w3.org/2000/svg">
<g clip-path="url(#clip0_1_4)">
<path d="M201.275 255.299C169.175 255.299 143.056 229.285 143.056 197.308C143.056 165.332 169.179 139.318 201.275 139.318C233.371 139.318 259.499 165.332 259.499 197.308C259.499 229.285 233.385 255.299 201.275 255.299ZM201.275 140.165C169.641 140.165 143.9 165.798 143.9 197.308C143.9 228.819 169.646 254.456 201.275 254.456C232.904 254.456 258.65 228.819 258.65 197.308C258.65 165.798 232.918 140.165 201.275 140.165Z" fill="#4EC9FD"/>
<path d="M201.275 265.167C163.707 265.167 133.143 234.725 133.143 197.308C133.143 159.892 163.712 129.449 201.275 129.449C238.838 129.449 269.407 159.892 269.407 197.308C269.407 234.725 238.848 265.167 201.275 265.167ZM201.275 133.402C165.922 133.402 137.126 162.066 137.126 197.294C137.126 232.522 165.922 261.2 201.275 261.2C236.628 261.2 265.428 232.541 265.428 197.308C265.428 162.075 236.651 133.416 201.275 133.416V133.402Z" fill="#4EC9FD"/>
<path d="M201.275 356.612C175.396 356.567 149.927 350.155 127.122 337.942C104.317 325.728 84.8789 308.091 70.5288 286.591C56.1786 265.09 47.3586 240.39 44.8494 214.675C42.3401 188.961 46.219 163.025 56.1427 139.164C66.0664 115.303 81.7288 94.2519 101.744 77.8741C121.759 61.4963 145.51 50.2967 170.894 45.2667C196.277 40.2366 222.512 41.5311 247.275 49.0356C272.039 56.5402 294.567 70.0233 312.867 88.2917C334.902 110.289 349.903 138.32 355.97 168.835C362.037 199.349 358.897 230.975 346.948 259.707C334.998 288.439 314.777 312.984 288.845 330.235C262.913 347.485 232.437 356.665 201.275 356.612ZM201.275 45.0823C165.466 45.1283 130.781 57.5668 103.128 80.279C75.4747 102.991 56.5639 134.572 49.617 169.642C42.6701 204.712 48.1167 241.102 65.0291 272.613C81.9415 304.124 109.273 328.806 142.369 342.456C175.465 356.106 212.277 357.878 246.535 347.472C280.793 337.065 310.377 315.124 330.249 285.384C350.121 255.645 359.05 219.947 355.516 184.372C351.982 148.797 336.204 115.546 310.868 90.2823C296.495 75.8964 279.411 64.4947 260.601 56.7351C241.791 48.9756 221.628 45.012 201.275 45.0729V45.0823Z" fill="#4EC9FD"/>
<path d="M202.491 25.0306H200.073V43.6659H202.491V25.0306Z" fill="#4EC9FD"/>
<path d="M202.491 355.2H200.073V373.835H202.491V355.2Z" fill="#4EC9FD"/>
<path d="M173.081 34.7458L171.224 35.0733L173.195 46.2091L175.052 45.8815L173.081 34.7458Z" fill="#4EC9FD"/>
<path d="M229.363 352.674L227.506 353.002L229.477 364.138L231.334 363.81L229.363 352.674Z" fill="#4EC9FD"/>
<path d="M146.907 53.3788L143.023 42.7577L144.795 42.1129L148.68 52.7388L146.907 53.3788Z" fill="#4EC9FD"/>
<path d="M257.769 356.753L253.885 346.132L255.657 345.487L259.541 356.113L257.769 356.753Z" fill="#4EC9FD"/>
<path d="M122.269 65.0024L116.593 55.2141L118.224 54.2729L123.9 64.0659L122.269 65.0024Z" fill="#4EC9FD"/>
<path d="M284.34 344.593L278.664 334.805L280.295 333.863L285.971 343.656L284.34 344.593Z" fill="#4EC9FD"/>
<path d="M100.034 80.7106L92.7373 72.0518L94.1797 70.8423L101.477 79.5059L100.034 80.7106Z" fill="#4EC9FD"/>
<path d="M308.384 328.024L301.088 319.365L302.535 318.155L309.827 326.819L308.384 328.024Z" fill="#4EC9FD"/>
<path d="M80.8729 100.028L72.1762 92.7624L73.3876 91.3224L82.0844 98.5882L80.8729 100.028Z" fill="#4EC9FD"/>
<path d="M329.177 307.548L320.48 300.278L321.691 298.842L330.388 306.108L329.177 307.548Z" fill="#4EC9FD"/>
<path d="M65.3696 122.362L55.5368 116.711L56.4795 115.082L66.3123 120.734L65.3696 122.362Z" fill="#4EC9FD"/>
<path d="M346.085 283.784L336.252 278.132L337.195 276.504L347.027 282.16L346.085 283.784Z" fill="#4EC9FD"/>
<path d="M54.0001 147.04L43.3283 143.172L43.9741 141.407L54.6412 145.275L54.0001 147.04Z" fill="#4EC9FD"/>
<path d="M358.59 257.459L347.923 253.591L348.569 251.826L359.236 255.694L358.59 257.459Z" fill="#4EC9FD"/>
<path d="M36.2504 169.502L35.9248 171.351L47.1039 173.313L47.4296 171.463L36.2504 169.502Z" fill="#4EC9FD"/>
<path d="M355.438 225.531L355.112 227.38L366.291 229.342L366.617 227.493L355.438 225.531Z" fill="#4EC9FD"/>
<path d="M44.8886 198.226H26.1799V200.635H44.8886V198.226Z" fill="#4EC9FD"/>
<path d="M376.389 198.226H357.68V200.635H376.389V198.226Z" fill="#4EC9FD"/>
<path d="M47.1043 225.548L35.9268 227.52L36.2541 229.369L47.4315 227.397L47.1043 225.548Z" fill="#4EC9FD"/>
<path d="M366.317 169.477L355.14 171.448L355.467 173.297L366.645 171.326L366.317 169.477Z" fill="#4EC9FD"/>
<path d="M43.9788 257.459L43.333 255.694L54.0001 251.826L54.6412 253.591L43.9788 257.459Z" fill="#4EC9FD"/>
<path d="M348.569 147.04L347.923 145.275L358.59 141.407L359.236 143.172L348.569 147.04Z" fill="#4EC9FD"/>
<path d="M56.4843 283.784L55.5415 282.155L65.3696 276.504L66.3123 278.132L56.4843 283.784Z" fill="#4EC9FD"/>
<path d="M337.195 122.362L336.252 120.734L346.085 115.082L347.027 116.706L337.195 122.362Z" fill="#4EC9FD"/>
<path d="M73.3876 307.544L72.1762 306.108L80.8729 298.838L82.0844 300.278L73.3876 307.544Z" fill="#4EC9FD"/>
<path d="M321.696 100.024L320.48 98.5883L329.177 91.3177L330.388 92.7577L321.696 100.024Z" fill="#4EC9FD"/>
<path d="M94.1797 328.024L92.7373 326.814L100.034 318.155L101.477 319.36L94.1797 328.024Z" fill="#4EC9FD"/>
<path d="M302.535 80.7106L301.088 79.5012L308.384 70.8423L309.831 72.0471L302.535 80.7106Z" fill="#4EC9FD"/>
<path d="M118.229 344.593L116.593 343.652L122.269 333.859L123.904 334.8L118.229 344.593Z" fill="#4EC9FD"/>
<path d="M280.295 65.0024L278.664 64.0612L284.34 54.2729L285.971 55.2094L280.295 65.0024Z" fill="#4EC9FD"/>
<path d="M144.795 356.753L143.023 356.108L146.907 345.482L148.68 346.127L144.795 356.753Z" fill="#4EC9FD"/>
<path d="M255.657 53.3788L253.889 52.7341L257.769 42.1129L259.541 42.7529L255.657 53.3788Z" fill="#4EC9FD"/>
<path d="M173.188 352.649L171.227 363.787L173.084 364.113L175.045 352.975L173.188 352.649Z" fill="#4EC9FD"/>
<path d="M229.468 34.7253L227.507 45.8628L229.364 46.1887L231.325 35.0512L229.468 34.7253Z" fill="#4EC9FD"/>
<path d="M195.935 38.1599L195.129 38.184L195.297 43.7699L196.103 43.7458L195.935 38.1599Z" fill="#4EC9FD"/>
<path d="M207.204 356.057L206.399 356.085L206.595 361.668L207.401 361.64L207.204 356.057Z" fill="#4EC9FD"/>
<path d="M190.785 37.5241L189.979 37.5805L190.371 43.1664L191.177 43.11L190.785 37.5241Z" fill="#4EC9FD"/>
<path d="M212.68 355.76L211.876 355.817L212.268 361.389L213.072 361.332L212.68 355.76Z" fill="#4EC9FD"/>
<path d="M184.641 37.933L183.84 38.0173L184.425 43.5725L185.227 43.4882L184.641 37.933Z" fill="#4EC9FD"/>
<path d="M218.12 355.29L217.318 355.375L217.904 360.93L218.706 360.846L218.12 355.29Z" fill="#4EC9FD"/>
<path d="M178.994 38.6249L178.196 38.737L178.976 44.2684L179.774 44.1563L178.994 38.6249Z" fill="#4EC9FD"/>
<path d="M223.586 354.6L222.788 354.713L223.569 360.249L224.367 360.136L223.586 354.6Z" fill="#4EC9FD"/>
<path d="M168.166 46.1929L167.002 40.7247L167.789 40.56L168.953 46.0235L168.166 46.1929Z" fill="#4EC9FD"/>
<path d="M234.399 352.667L233.61 352.835L234.777 358.298L235.565 358.13L234.399 352.667Z" fill="#4EC9FD"/>
<path d="M162.816 47.4353L161.458 42.0141L162.241 41.8212L163.598 47.2423L162.816 47.4353Z" fill="#4EC9FD"/>
<path d="M240.319 357.045L238.961 351.624L239.748 351.431L241.106 356.852L240.319 357.045Z" fill="#4EC9FD"/>
<path d="M157.513 48.8659L155.967 43.4964L156.745 43.2753L158.291 48.6447L157.513 48.8659Z" fill="#4EC9FD"/>
<path d="M245.819 355.595L244.273 350.221L245.046 350L246.597 355.374L245.819 355.595Z" fill="#4EC9FD"/>
<path d="M152.262 50.48L150.532 45.1671L151.3 44.9177L153.03 50.2306L152.262 50.48Z" fill="#4EC9FD"/>
<path d="M251.264 353.948L249.529 348.635L250.297 348.386L252.032 353.703L251.264 353.948Z" fill="#4EC9FD"/>
<path d="M141.953 54.2494L139.851 49.0682L140.6 48.7671L142.698 53.9482L141.953 54.2494Z" fill="#4EC9FD"/>
<path d="M261.964 350.103L259.862 344.922L260.611 344.621L262.713 349.802L261.964 350.103Z" fill="#4EC9FD"/>
<path d="M136.9 56.4L134.619 51.2941L135.359 50.9694L137.64 56.0706L136.9 56.4Z" fill="#4EC9FD"/>
<path d="M267.205 347.901L264.924 342.795L265.664 342.471L267.946 347.572L267.205 347.901Z" fill="#4EC9FD"/>
<path d="M131.927 58.7247L129.471 53.7035L130.192 53.3506L132.653 58.3718L131.927 58.7247Z" fill="#4EC9FD"/>
<path d="M272.372 345.52L269.911 340.494L270.632 340.141L273.093 345.167L272.372 345.52Z" fill="#4EC9FD"/>
<path d="M127.039 61.2188L124.409 56.2871L125.12 55.9106L127.751 60.8423L127.039 61.2188Z" fill="#4EC9FD"/>
<path d="M277.444 342.955L274.809 338.024L275.525 337.647L278.155 342.579L277.444 342.955Z" fill="#4EC9FD"/>
<path d="M117.541 66.7153L114.566 61.9765L115.25 61.5482L118.224 66.287L117.541 66.7153Z" fill="#4EC9FD"/>
<path d="M287.309 337.318L284.34 332.579L285.023 332.151L287.998 336.889L287.309 337.318Z" fill="#4EC9FD"/>
<path d="M112.94 69.7082L109.806 65.0729L110.475 64.6259L113.61 69.2565L112.94 69.7082Z" fill="#4EC9FD"/>
<path d="M292.089 334.24L288.954 329.609L289.624 329.162L292.758 333.793L292.089 334.24Z" fill="#4EC9FD"/>
<path d="M108.448 72.8565L105.153 68.3388L105.804 67.8635L109.103 72.3859L108.448 72.8565Z" fill="#4EC9FD"/>
<path d="M296.76 331.002L293.461 326.485L294.111 326.009L297.411 330.532L296.76 331.002Z" fill="#4EC9FD"/>
<path d="M104.069 76.16L100.619 71.76L101.255 71.2659L104.705 75.6659L104.069 76.16Z" fill="#4EC9FD"/>
<path d="M301.309 327.605L297.859 323.2L298.495 322.706L301.946 327.111L301.309 327.605Z" fill="#4EC9FD"/>
<path d="M95.674 83.2141L91.9218 79.0635L92.5205 78.5223L96.2726 82.6776L95.674 83.2141Z" fill="#4EC9FD"/>
<path d="M310.044 320.344L306.292 316.188L306.89 315.652L310.642 319.807L310.044 320.344Z" fill="#4EC9FD"/>
<path d="M91.6673 86.9553L87.7691 82.9365L88.3489 82.3812L92.2471 86.4L91.6673 86.9553Z" fill="#4EC9FD"/>
<path d="M314.215 316.489L310.317 312.471L310.897 311.911L314.795 315.929L314.215 316.489Z" fill="#4EC9FD"/>
<path d="M87.7927 90.8376L83.7578 86.9553L84.3187 86.3765L88.3536 90.2588L87.7927 90.8376Z" fill="#4EC9FD"/>
<path d="M318.245 312.494L314.211 308.612L314.771 308.033L318.806 311.915L318.245 312.494Z" fill="#4EC9FD"/>
<path d="M84.0547 94.8471L79.8878 91.1059L80.4299 90.5129L84.5968 94.2494L84.0547 94.8471Z" fill="#4EC9FD"/>
<path d="M322.134 308.358L317.967 304.621L318.509 304.019L322.676 307.76L322.134 308.358Z" fill="#4EC9FD"/>
<path d="M77.0171 103.247L72.5957 99.807L73.0906 99.1718L77.5121 102.612L77.0171 103.247Z" fill="#4EC9FD"/>
<path d="M329.473 299.694L325.052 296.254L325.547 295.624L329.968 299.064L329.473 299.694Z" fill="#4EC9FD"/>
<path d="M73.7223 107.624L69.183 104.339L69.6591 103.689L74.1936 106.974L73.7223 107.624Z" fill="#4EC9FD"/>
<path d="M332.905 295.176L328.37 291.892L328.842 291.242L333.381 294.527L332.905 295.176Z" fill="#4EC9FD"/>
<path d="M70.5829 112.113L65.9305 108.988L66.383 108.325L71.0307 111.449L70.5829 112.113Z" fill="#4EC9FD"/>
<path d="M336.181 290.546L331.529 287.421L331.981 286.753L336.634 289.878L336.181 290.546Z" fill="#4EC9FD"/>
<path d="M67.5992 116.711L62.8478 113.751L63.272 113.068L68.0281 116.028L67.5992 116.711Z" fill="#4EC9FD"/>
<path d="M339.292 285.802L334.536 282.838L334.965 282.16L339.721 285.12L339.292 285.802Z" fill="#4EC9FD"/>
<path d="M62.136 126.198L57.1819 123.576L57.559 122.866L62.5131 125.487L62.136 126.198Z" fill="#4EC9FD"/>
<path d="M345.005 276L340.051 273.379L340.433 272.668L345.382 275.289L345.005 276Z" fill="#4EC9FD"/>
<path d="M59.6519 131.082L54.6129 128.631L54.9664 127.911L60.0054 130.358L59.6519 131.082Z" fill="#4EC9FD"/>
<path d="M347.602 270.96L342.559 268.508L342.912 267.788L347.956 270.235L347.602 270.96Z" fill="#4EC9FD"/>
<path d="M57.3422 136.047L52.2184 133.769L52.5483 133.035L57.6721 135.313L57.3422 136.047Z" fill="#4EC9FD"/>
<path d="M350.016 265.831L344.892 263.558L345.222 262.824L350.346 265.096L350.016 265.831Z" fill="#4EC9FD"/>
<path d="M55.2116 141.087L50.0124 138.993L50.314 138.249L55.5132 140.344L55.2116 141.087Z" fill="#4EC9FD"/>
<path d="M352.25 260.621L347.051 258.527L347.353 257.779L352.556 259.873L352.25 260.621Z" fill="#4EC9FD"/>
<path d="M51.4783 151.379L46.1471 149.652L46.3969 148.885L51.7281 150.612L51.4783 151.379Z" fill="#4EC9FD"/>
<path d="M356.172 249.981L350.836 248.254L351.086 247.492L356.422 249.214L356.172 249.981Z" fill="#4EC9FD"/>
<path d="M49.8851 156.612L44.4973 155.073L44.7189 154.301L50.1113 155.84L49.8851 156.612Z" fill="#4EC9FD"/>
<path d="M352.659 242.228L352.437 243.001L357.83 244.542L358.052 243.769L352.659 242.228Z" fill="#4EC9FD"/>
<path d="M43.2337 159.758L43.0391 160.539L48.4825 161.891L48.6771 161.11L43.2337 159.758Z" fill="#4EC9FD"/>
<path d="M359.335 239.096L353.89 237.746L354.084 236.965L359.528 238.315L359.335 239.096Z" fill="#4EC9FD"/>
<path d="M41.9401 165.291L41.7727 166.078L47.2596 167.242L47.4271 166.455L41.9401 165.291Z" fill="#4EC9FD"/>
<path d="M360.626 233.576L355.14 232.414L355.305 231.628L360.796 232.791L360.626 233.576Z" fill="#4EC9FD"/>
<path d="M39.931 176.429L39.8191 177.226L45.3741 178.004L45.486 177.207L39.931 176.429Z" fill="#4EC9FD"/>
<path d="M357.518 221.199L357.405 221.996L362.958 222.78L363.071 221.983L357.518 221.199Z" fill="#4EC9FD"/>
<path d="M39.229 182.064L39.1447 182.864L44.7233 183.449L44.8075 182.649L39.229 182.064Z" fill="#4EC9FD"/>
<path d="M357.845 215.419L357.76 216.22L363.339 216.805L363.423 216.005L357.845 215.419Z" fill="#4EC9FD"/>
<path d="M39.1854 187.668L39.129 188.472L44.7383 188.864L44.7947 188.06L39.1854 187.668Z" fill="#4EC9FD"/>
<path d="M358.285 209.954L358.229 210.757L363.825 211.146L363.881 210.343L358.285 209.954Z" fill="#4EC9FD"/>
<path d="M38.4051 193.372L38.3768 194.176L43.9827 194.372L44.0109 193.568L38.4051 193.372Z" fill="#4EC9FD"/>
<path d="M358.606 204.519L358.578 205.323L364.183 205.519L364.212 204.715L358.606 204.519Z" fill="#4EC9FD"/>
<path d="M43.0093 204.842L37.3999 205.01L37.4241 205.815L43.0334 205.647L43.0093 204.842Z" fill="#4EC9FD"/>
<path d="M364.16 193.363L358.554 193.559L358.582 194.363L364.188 194.167L364.16 193.363Z" fill="#4EC9FD"/>
<path d="M44.2681 209.966L38.6724 210.356L38.7287 211.159L44.3243 210.768L44.2681 209.966Z" fill="#4EC9FD"/>
<path d="M363.852 187.693L358.256 188.084L358.312 188.886L363.908 188.496L363.852 187.693Z" fill="#4EC9FD"/>
<path d="M44.7336 215.414L39.1551 216L39.2395 216.8L44.818 216.214L44.7336 215.414Z" fill="#4EC9FD"/>
<path d="M363.343 182.042L357.765 182.631L357.85 183.432L363.428 182.842L363.343 182.042Z" fill="#4EC9FD"/>
<path d="M45.3781 220.85L39.8237 221.631L39.9362 222.428L45.4906 221.646L45.3781 220.85Z" fill="#4EC9FD"/>
<path d="M362.629 176.441L357.075 177.222L357.187 178.019L362.742 177.238L362.629 176.441Z" fill="#4EC9FD"/>
<path d="M41.9378 233.576L41.7728 232.791L47.2596 231.628L47.4245 232.414L41.9378 233.576Z" fill="#4EC9FD"/>
<path d="M355.309 167.238L355.14 166.447L360.626 165.289L360.796 166.075L355.309 167.238Z" fill="#4EC9FD"/>
<path d="M48.4794 236.96L43.0375 238.318L43.2329 239.099L48.6748 237.741L48.4794 236.96Z" fill="#4EC9FD"/>
<path d="M354.084 161.901L353.89 161.12L359.335 159.769L359.528 160.551L354.084 161.901Z" fill="#4EC9FD"/>
<path d="M44.7189 244.565L44.4973 243.793L49.8898 242.254L50.1113 243.026L44.7189 244.565Z" fill="#4EC9FD"/>
<path d="M352.679 156.612L352.457 155.84L357.85 154.301L358.072 155.073L352.679 156.612Z" fill="#4EC9FD"/>
<path d="M46.3969 249.981L46.1471 249.214L51.483 247.492L51.7281 248.254L46.3969 249.981Z" fill="#4EC9FD"/>
<path d="M351.086 151.374L350.836 150.612L356.172 148.885L356.417 149.652L351.086 151.374Z" fill="#4EC9FD"/>
<path d="M50.314 260.616L50.0124 259.873L55.2116 257.779L55.5132 258.527L50.314 260.616Z" fill="#4EC9FD"/>
<path d="M347.353 141.087L347.051 140.339L352.255 138.245L352.556 138.993L347.353 141.087Z" fill="#4EC9FD"/>
<path d="M52.5483 265.826L52.2184 265.096L57.3469 262.824L57.6721 263.553L52.5483 265.826Z" fill="#4EC9FD"/>
<path d="M345.222 136.042L344.892 135.308L350.016 133.035L350.346 133.769L345.222 136.042Z" fill="#4EC9FD"/>
<path d="M54.9664 270.955L54.6129 270.235L59.6519 267.788L60.0054 268.508L54.9664 270.955Z" fill="#4EC9FD"/>
<path d="M342.912 131.078L342.559 130.358L347.602 127.906L347.956 128.631L342.912 131.078Z" fill="#4EC9FD"/>
<path d="M57.5637 276L57.1819 275.289L62.136 272.668L62.5131 273.379L57.5637 276Z" fill="#4EC9FD"/>
<path d="M340.433 126.198L340.051 125.487L345.005 122.866L345.382 123.576L340.433 126.198Z" fill="#4EC9FD"/>
<path d="M63.272 285.798L62.8478 285.115L67.6039 282.155L68.0328 282.838L63.272 285.798Z" fill="#4EC9FD"/>
<path d="M334.965 116.706L334.536 116.028L339.292 113.064L339.721 113.746L334.965 116.706Z" fill="#4EC9FD"/>
<path d="M66.383 290.541L65.9352 289.878L70.5829 286.753L71.0355 287.421L66.383 290.541Z" fill="#4EC9FD"/>
<path d="M331.981 112.113L331.529 111.445L336.181 108.32L336.634 108.988L331.981 112.113Z" fill="#4EC9FD"/>
<path d="M69.6591 295.176L69.183 294.527L73.7223 291.242L74.1984 291.892L69.6591 295.176Z" fill="#4EC9FD"/>
<path d="M328.842 107.624L328.37 106.974L332.91 103.689L333.381 104.339L328.842 107.624Z" fill="#4EC9FD"/>
<path d="M73.0954 299.694L72.5957 299.059L77.0171 295.619L77.5121 296.254L73.0954 299.694Z" fill="#4EC9FD"/>
<path d="M325.547 103.242L325.052 102.612L329.473 99.1718L329.968 99.807L325.547 103.242Z" fill="#4EC9FD"/>
<path d="M80.4299 308.358L79.8878 307.76L84.0547 304.019L84.5968 304.616L80.4299 308.358Z" fill="#4EC9FD"/>
<path d="M318.509 94.8424L317.967 94.2494L322.139 90.5082L322.676 91.1059L318.509 94.8424Z" fill="#4EC9FD"/>
<path d="M84.3187 312.489L83.7578 311.911L87.7927 308.033L88.3536 308.607L84.3187 312.489Z" fill="#4EC9FD"/>
<path d="M314.771 90.8329L314.211 90.2541L318.25 86.3718L318.811 86.9506L314.771 90.8329Z" fill="#4EC9FD"/>
<path d="M88.3536 316.485L87.7691 315.929L91.6673 311.911L92.2471 312.466L88.3536 316.485Z" fill="#4EC9FD"/>
<path d="M310.897 86.9553L310.317 86.3953L314.215 82.3765L314.795 82.9365L310.897 86.9553Z" fill="#4EC9FD"/>
<path d="M92.5205 320.339L91.9218 319.802L95.674 315.652L96.2773 316.188L92.5205 320.339Z" fill="#4EC9FD"/>
<path d="M306.89 83.2141L306.292 82.6729L310.044 78.5223L310.642 79.0635L306.89 83.2141Z" fill="#4EC9FD"/>
<path d="M101.255 327.6L100.619 327.106L104.074 322.706L104.71 323.2L101.255 327.6Z" fill="#4EC9FD"/>
<path d="M298.495 76.1553L297.859 75.6612L301.314 71.2612L301.946 71.7553L298.495 76.1553Z" fill="#4EC9FD"/>
<path d="M105.808 331.002L105.153 330.527L108.453 326.009L109.103 326.48L105.808 331.002Z" fill="#4EC9FD"/>
<path d="M294.111 72.8565L293.461 72.3812L296.76 67.8635L297.411 68.3341L294.111 72.8565Z" fill="#4EC9FD"/>
<path d="M110.475 334.24L109.806 333.788L112.94 329.158L113.61 329.609L110.475 334.24Z" fill="#4EC9FD"/>
<path d="M289.624 69.7035L288.954 69.2565L292.089 64.6212L292.758 65.0729L289.624 69.7035Z" fill="#4EC9FD"/>
<path d="M115.255 337.313L114.571 336.889L117.541 332.151L118.224 332.579L115.255 337.313Z" fill="#4EC9FD"/>
<path d="M285.023 66.7106L284.34 66.287L287.309 61.5482L287.998 61.9765L285.023 66.7106Z" fill="#4EC9FD"/>
<path d="M125.12 342.955L124.409 342.579L127.039 337.642L127.755 338.019L125.12 342.955Z" fill="#4EC9FD"/>
<path d="M275.525 61.2188L274.813 60.8423L277.444 55.9059L278.16 56.2824L275.525 61.2188Z" fill="#4EC9FD"/>
<path d="M130.197 345.515L129.471 345.162L131.932 340.141L132.658 340.494L130.197 345.515Z" fill="#4EC9FD"/>
<path d="M270.632 58.7247L269.911 58.3718L272.372 53.3459L273.098 53.6988L270.632 58.7247Z" fill="#4EC9FD"/>
<path d="M135.359 347.896L134.619 347.572L136.905 342.466L137.64 342.795L135.359 347.896Z" fill="#4EC9FD"/>
<path d="M265.664 56.3953L264.929 56.0706L267.21 50.9647L267.945 51.2941L265.664 56.3953Z" fill="#4EC9FD"/>
<path d="M140.6 350.099L139.851 349.798L141.953 344.616L142.703 344.918L140.6 350.099Z" fill="#4EC9FD"/>
<path d="M260.611 54.2447L259.862 53.9435L261.964 48.7671L262.713 49.0682L260.611 54.2447Z" fill="#4EC9FD"/>
<path d="M151.3 353.948L150.532 353.699L152.267 348.386L153.035 348.635L151.3 353.948Z" fill="#4EC9FD"/>
<path d="M250.297 50.4753L249.534 50.2306L251.264 44.9129L252.032 45.1623L250.297 50.4753Z" fill="#4EC9FD"/>
<path d="M156.745 355.591L155.967 355.369L157.518 350L158.291 350.221L156.745 355.591Z" fill="#4EC9FD"/>
<path d="M245.051 48.8659L244.273 48.6447L245.819 43.2706L246.597 43.4917L245.051 48.8659Z" fill="#4EC9FD"/>
<path d="M162.246 357.045L161.463 356.847L162.816 351.426L163.598 351.624L162.246 357.045Z" fill="#4EC9FD"/>
<path d="M239.748 47.4353L238.966 47.2423L240.323 41.8165L241.106 42.0141L239.748 47.4353Z" fill="#4EC9FD"/>
<path d="M168.172 352.69L167.01 358.154L167.798 358.322L168.961 352.858L168.172 352.69Z" fill="#4EC9FD"/>
<path d="M234.398 46.1882L233.606 46.0235L234.775 40.56L235.567 40.7294L234.398 46.1882Z" fill="#4EC9FD"/>
<path d="M178.967 354.569L178.189 360.105L178.988 360.217L179.765 354.681L178.967 354.569Z" fill="#4EC9FD"/>
<path d="M223.546 38.61L222.769 44.1464L223.567 44.2581L224.344 38.7217L223.546 38.61Z" fill="#4EC9FD"/>
<path d="M184.428 355.281L183.845 360.836L184.646 360.92L185.229 355.365L184.428 355.281Z" fill="#4EC9FD"/>
<path d="M217.914 37.936L217.331 43.4961L218.133 43.58L218.716 38.0198L217.914 37.936Z" fill="#4EC9FD"/>
<path d="M189.896 355.758L189.508 361.331L190.312 361.387L190.7 355.814L189.896 355.758Z" fill="#4EC9FD"/>
<path d="M212.239 37.4599L211.851 43.0323L212.655 43.0881L213.044 37.5157L212.239 37.4599Z" fill="#4EC9FD"/>
<path d="M195.38 356.064L195.185 361.647L195.991 361.674L196.185 356.092L195.38 356.064Z" fill="#4EC9FD"/>
<path d="M207.583 37.235L207.359 42.8209L208.165 42.8531L208.389 37.2672L207.583 37.235Z" fill="#4EC9FD"/>
<path d="M201.275 374.776C169.589 374.656 138.526 365.973 111.385 349.649C84.243 333.324 62.0354 309.967 47.119 282.058C32.2026 254.148 25.1341 222.727 26.6638 191.13C28.1935 159.533 38.2643 128.938 55.8072 102.595C73.3501 76.2515 97.7104 55.1417 126.302 41.5064C154.894 27.871 186.651 22.219 218.201 25.1503C249.751 28.0815 279.918 39.4867 305.499 58.155C331.079 76.8234 351.12 102.058 363.492 131.181C374.757 157.875 379.228 186.938 376.505 215.777C373.782 244.615 363.95 272.332 347.886 296.454C331.823 320.576 310.027 340.353 284.445 354.019C258.863 367.686 230.289 374.817 201.275 374.776ZM201.275 25.9718C169.928 26.0912 139.199 34.6818 112.349 50.8319C85.4985 66.9819 63.5294 90.0887 48.7734 117.699C34.0174 145.31 27.0252 176.394 28.5389 207.653C30.0527 238.911 40.0159 269.177 57.3711 295.238C74.7263 321.299 98.8257 342.182 127.111 355.671C155.397 369.16 186.813 374.751 218.025 371.851C249.237 368.95 279.08 357.667 304.386 339.199C329.693 320.73 349.518 295.766 361.758 266.955C372.905 240.547 377.33 211.795 374.637 183.264C371.944 154.733 362.217 127.312 346.325 103.448C330.432 79.5833 308.869 60.0186 283.559 46.4997C258.249 32.9808 229.98 25.9283 201.275 25.9718Z" fill="#4EC9FD"/>
<path d="M201.35 306.424H201.275C200.257 306.424 199.229 306.424 198.22 306.381C197.879 306.372 197.556 306.228 197.321 305.98C197.086 305.732 196.96 305.402 196.969 305.061C196.978 304.72 197.123 304.397 197.371 304.163C197.619 303.929 197.95 303.802 198.291 303.812C199.276 303.84 200.28 303.854 201.275 303.854H201.341C201.682 303.854 202.01 303.989 202.251 304.23C202.492 304.471 202.628 304.798 202.628 305.139C202.628 305.48 202.492 305.806 202.251 306.047C202.01 306.288 201.682 306.424 201.341 306.424H201.35ZM207.521 306.245C207.179 306.255 206.848 306.129 206.6 305.895C206.351 305.661 206.206 305.338 206.196 304.998C206.186 304.657 206.312 304.326 206.546 304.078C206.781 303.83 207.104 303.685 207.445 303.675C208.454 303.614 209.477 303.544 210.486 303.454C210.66 303.429 210.837 303.439 211.007 303.485C211.176 303.53 211.335 303.61 211.473 303.719C211.611 303.827 211.725 303.963 211.809 304.118C211.892 304.272 211.943 304.442 211.959 304.617C211.974 304.792 211.953 304.968 211.898 305.135C211.843 305.301 211.755 305.455 211.638 305.586C211.521 305.717 211.379 305.823 211.22 305.898C211.06 305.972 210.888 306.013 210.712 306.019C209.679 306.108 208.628 306.184 207.596 306.24L207.521 306.245ZM192.102 306.033H191.994C190.957 305.944 189.91 305.84 188.883 305.722C188.543 305.683 188.233 305.511 188.021 305.243C187.809 304.976 187.712 304.635 187.751 304.296C187.791 303.958 187.963 303.648 188.231 303.436C188.499 303.225 188.84 303.128 189.18 303.167C190.179 303.285 191.202 303.384 192.211 303.473C192.541 303.501 192.848 303.656 193.067 303.904C193.286 304.153 193.4 304.476 193.386 304.807C193.372 305.138 193.231 305.451 192.992 305.68C192.752 305.909 192.434 306.037 192.102 306.038V306.033ZM216.726 305.313C216.396 305.321 216.075 305.202 215.83 304.98C215.585 304.758 215.435 304.45 215.411 304.121C215.388 303.791 215.492 303.465 215.703 303.211C215.913 302.956 216.214 302.792 216.543 302.753C217.542 302.612 218.551 302.447 219.55 302.282C219.716 302.251 219.887 302.254 220.053 302.289C220.219 302.324 220.376 302.391 220.516 302.487C220.655 302.582 220.775 302.705 220.867 302.846C220.959 302.988 221.023 303.147 221.054 303.313C221.085 303.479 221.082 303.65 221.047 303.815C221.012 303.981 220.945 304.138 220.849 304.277C220.753 304.416 220.631 304.536 220.489 304.628C220.347 304.72 220.188 304.783 220.021 304.814C218.998 304.993 217.961 305.158 216.939 305.285L216.726 305.313ZM182.925 304.842C182.851 304.849 182.777 304.849 182.703 304.842C181.68 304.664 180.648 304.471 179.634 304.264C179.468 304.231 179.31 304.165 179.169 304.071C179.028 303.977 178.907 303.856 178.813 303.715C178.719 303.574 178.654 303.416 178.621 303.25C178.589 303.084 178.589 302.913 178.623 302.747C178.657 302.581 178.723 302.423 178.818 302.283C178.913 302.143 179.035 302.023 179.177 301.93C179.319 301.837 179.478 301.773 179.644 301.741C179.811 301.709 179.982 301.711 180.148 301.746C181.138 301.944 182.147 302.136 183.146 302.311C183.464 302.365 183.749 302.537 183.946 302.792C184.143 303.047 184.236 303.367 184.209 303.687C184.181 304.008 184.033 304.307 183.796 304.524C183.558 304.741 183.247 304.862 182.925 304.861V304.842ZM225.819 303.581C225.502 303.583 225.196 303.468 224.959 303.259C224.722 303.049 224.57 302.76 224.534 302.446C224.497 302.132 224.577 301.815 224.76 301.557C224.942 301.298 225.214 301.116 225.522 301.045C226.507 300.809 227.502 300.574 228.478 300.301C228.641 300.257 228.812 300.246 228.979 300.268C229.147 300.29 229.309 300.344 229.456 300.429C229.602 300.513 229.731 300.626 229.834 300.759C229.937 300.893 230.013 301.046 230.057 301.209C230.101 301.373 230.112 301.543 230.09 301.71C230.068 301.878 230.013 302.039 229.929 302.186C229.845 302.332 229.732 302.46 229.598 302.563C229.464 302.666 229.311 302.742 229.147 302.786C228.148 303.049 227.13 303.308 226.116 303.544C226.019 303.569 225.92 303.583 225.819 303.586V303.581ZM173.884 302.861C173.771 302.861 173.658 302.847 173.549 302.819C172.554 302.555 171.546 302.268 170.546 301.972C170.38 301.927 170.224 301.85 170.088 301.745C169.953 301.639 169.839 301.508 169.755 301.358C169.671 301.208 169.618 301.042 169.599 300.872C169.58 300.701 169.596 300.528 169.645 300.363C169.694 300.199 169.776 300.045 169.886 299.913C169.995 299.78 170.13 299.671 170.283 299.592C170.435 299.512 170.603 299.464 170.774 299.45C170.946 299.436 171.118 299.457 171.282 299.511C172.257 299.798 173.243 300.075 174.218 300.334C174.521 300.414 174.785 300.601 174.959 300.861C175.134 301.12 175.208 301.435 175.166 301.745C175.125 302.055 174.972 302.339 174.736 302.545C174.5 302.75 174.197 302.863 173.884 302.861ZM234.742 301.068C234.437 301.068 234.141 300.959 233.909 300.761C233.676 300.564 233.522 300.29 233.473 299.989C233.425 299.688 233.485 299.379 233.643 299.118C233.801 298.857 234.047 298.661 234.337 298.565C235.28 298.245 236.265 297.911 237.217 297.562C237.376 297.505 237.545 297.479 237.714 297.486C237.883 297.493 238.049 297.534 238.203 297.605C238.356 297.677 238.494 297.778 238.608 297.902C238.723 298.027 238.811 298.173 238.869 298.332C238.927 298.491 238.953 298.659 238.946 298.828C238.938 298.997 238.897 299.163 238.826 299.316C238.754 299.469 238.653 299.607 238.528 299.721C238.404 299.835 238.257 299.923 238.098 299.981C237.127 300.334 236.133 300.678 235.148 301.002C235.017 301.047 234.88 301.07 234.742 301.068ZM165.074 300.127C164.923 300.127 164.773 300.102 164.631 300.052C163.65 299.694 162.665 299.322 161.703 298.941C161.544 298.881 161.398 298.79 161.275 298.673C161.151 298.556 161.051 298.416 160.982 298.26C160.913 298.104 160.876 297.937 160.872 297.767C160.869 297.596 160.899 297.427 160.962 297.269C161.024 297.111 161.117 296.966 161.236 296.844C161.355 296.722 161.497 296.625 161.653 296.558C161.81 296.491 161.979 296.456 162.149 296.455C162.32 296.454 162.488 296.486 162.646 296.551C163.589 296.922 164.532 297.289 165.503 297.633C165.788 297.735 166.029 297.935 166.181 298.197C166.334 298.459 166.389 298.766 166.336 299.064C166.284 299.363 166.127 299.633 165.895 299.828C165.662 300.022 165.368 300.128 165.064 300.127H165.074ZM243.382 297.812C243.085 297.814 242.797 297.713 242.566 297.526C242.335 297.34 242.175 297.079 242.115 296.789C242.054 296.498 242.096 296.196 242.234 295.933C242.371 295.67 242.595 295.463 242.869 295.346C243.811 294.946 244.731 294.527 245.64 294.104C245.795 294.032 245.962 293.991 246.133 293.984C246.303 293.977 246.474 294.004 246.634 294.062C246.794 294.121 246.941 294.21 247.067 294.325C247.192 294.441 247.294 294.58 247.366 294.734C247.437 294.889 247.478 295.056 247.485 295.226C247.492 295.396 247.466 295.566 247.407 295.726C247.348 295.886 247.259 296.033 247.143 296.158C247.028 296.283 246.889 296.385 246.734 296.456C245.791 296.894 244.848 297.322 243.906 297.732C243.731 297.788 243.546 297.807 243.364 297.788L243.382 297.812ZM156.495 296.569C156.308 296.569 156.123 296.529 155.953 296.452C155.01 296.014 154.067 295.558 153.125 295.092C152.974 295.016 152.839 294.911 152.729 294.783C152.618 294.655 152.534 294.507 152.481 294.346C152.428 294.186 152.407 294.017 152.42 293.848C152.432 293.68 152.478 293.516 152.554 293.365C152.63 293.214 152.735 293.08 152.864 292.969C152.992 292.859 153.14 292.775 153.301 292.722C153.462 292.669 153.631 292.649 153.8 292.661C153.969 292.674 154.133 292.719 154.284 292.795C155.189 293.266 156.113 293.694 157.032 294.122C157.301 294.243 157.52 294.453 157.652 294.717C157.785 294.98 157.822 295.281 157.757 295.568C157.693 295.856 157.531 296.112 157.3 296.295C157.068 296.477 156.78 296.574 156.485 296.569H156.495ZM251.688 293.746C251.402 293.746 251.124 293.65 250.898 293.475C250.672 293.299 250.511 293.054 250.441 292.777C250.371 292.5 250.395 292.207 250.51 291.946C250.625 291.684 250.824 291.468 251.075 291.332C251.961 290.861 252.857 290.353 253.729 289.849C254.023 289.7 254.363 289.669 254.68 289.762C254.996 289.855 255.265 290.066 255.431 290.351C255.597 290.636 255.647 290.973 255.572 291.294C255.496 291.614 255.301 291.894 255.025 292.075C254.13 292.593 253.211 293.101 252.301 293.591C252.111 293.705 251.895 293.766 251.674 293.769L251.688 293.746ZM148.274 292.282C148.047 292.283 147.824 292.223 147.628 292.108C146.728 291.591 145.823 291.054 144.942 290.513C144.798 290.424 144.673 290.308 144.574 290.17C144.475 290.033 144.404 289.878 144.365 289.713C144.327 289.549 144.321 289.378 144.348 289.211C144.375 289.045 144.435 288.885 144.524 288.741C144.614 288.598 144.73 288.473 144.868 288.374C145.005 288.275 145.161 288.205 145.325 288.166C145.49 288.127 145.661 288.121 145.828 288.149C145.995 288.176 146.155 288.236 146.299 288.325C147.157 288.852 148.043 289.379 148.92 289.882C149.167 290.023 149.36 290.242 149.469 290.504C149.579 290.766 149.598 291.057 149.524 291.331C149.45 291.605 149.288 291.847 149.061 292.019C148.835 292.191 148.558 292.284 148.274 292.282ZM259.621 289.021C259.346 289.02 259.078 288.93 258.858 288.765C258.637 288.6 258.475 288.369 258.396 288.106C258.317 287.842 258.325 287.561 258.418 287.302C258.511 287.043 258.685 286.821 258.914 286.668C259.753 286.118 260.602 285.544 261.431 284.965C261.57 284.868 261.726 284.799 261.891 284.762C262.056 284.725 262.226 284.721 262.393 284.75C262.559 284.779 262.719 284.841 262.861 284.931C263.004 285.022 263.128 285.14 263.225 285.278C263.322 285.416 263.391 285.572 263.428 285.736C263.465 285.901 263.469 286.072 263.44 286.238C263.41 286.404 263.349 286.563 263.258 286.705C263.168 286.848 263.05 286.971 262.911 287.068C262.063 287.666 261.196 288.254 260.333 288.819C260.118 288.964 259.866 289.042 259.607 289.045L259.621 289.021ZM140.468 287.346C140.204 287.347 139.947 287.264 139.733 287.111C138.88 286.518 138.027 285.906 137.197 285.289C137.052 285.192 136.929 285.066 136.834 284.919C136.739 284.773 136.675 284.609 136.646 284.437C136.617 284.265 136.623 284.089 136.664 283.919C136.704 283.75 136.779 283.59 136.884 283.45C136.988 283.31 137.12 283.193 137.271 283.106C137.422 283.018 137.589 282.962 137.762 282.941C137.936 282.919 138.112 282.934 138.279 282.982C138.447 283.031 138.603 283.113 138.738 283.224C139.549 283.826 140.383 284.428 141.213 285.007C141.445 285.162 141.62 285.387 141.713 285.65C141.805 285.912 141.81 286.197 141.726 286.463C141.642 286.728 141.474 286.959 141.247 287.121C141.02 287.283 140.747 287.367 140.468 287.36V287.346ZM267.125 283.647C266.857 283.649 266.594 283.567 266.375 283.412C266.156 283.257 265.99 283.038 265.902 282.785C265.813 282.532 265.807 282.257 265.882 282C265.958 281.743 266.113 281.516 266.324 281.351C267.121 280.725 267.913 280.08 268.681 279.435C268.942 279.216 269.28 279.109 269.62 279.138C269.961 279.167 270.276 279.33 270.496 279.591C270.716 279.851 270.823 280.189 270.794 280.529C270.765 280.868 270.601 281.183 270.34 281.402C269.548 282.066 268.737 282.725 267.922 283.369C267.688 283.553 267.399 283.651 267.102 283.647H267.125ZM133.124 281.727C132.821 281.727 132.527 281.621 132.295 281.426C131.498 280.762 130.701 280.075 129.938 279.393C129.698 279.162 129.558 278.847 129.546 278.514C129.533 278.182 129.65 277.858 129.871 277.609C130.093 277.361 130.402 277.207 130.734 277.181C131.066 277.155 131.396 277.258 131.654 277.468C132.413 278.141 133.186 278.809 133.963 279.454C134.167 279.623 134.314 279.851 134.383 280.107C134.453 280.363 134.441 280.633 134.35 280.882C134.259 281.131 134.094 281.346 133.876 281.497C133.658 281.648 133.399 281.729 133.134 281.727H133.124ZM274.125 277.619C273.867 277.62 273.614 277.543 273.4 277.399C273.186 277.255 273.02 277.049 272.924 276.81C272.829 276.57 272.808 276.307 272.864 276.055C272.92 275.803 273.051 275.574 273.239 275.398C273.974 274.706 274.71 273.986 275.426 273.28C275.667 273.038 275.995 272.903 276.337 272.902C276.678 272.902 277.006 273.037 277.248 273.278C277.49 273.519 277.626 273.846 277.627 274.187C277.627 274.528 277.492 274.855 277.25 275.096C276.515 275.831 275.761 276.56 275.011 277.266C274.766 277.498 274.439 277.625 274.102 277.619H274.125ZM126.299 275.496C126.129 275.497 125.961 275.464 125.804 275.4C125.647 275.335 125.504 275.24 125.384 275.12C124.649 274.391 123.918 273.642 123.207 272.894C123.09 272.771 122.999 272.625 122.939 272.467C122.879 272.308 122.851 272.139 122.856 271.969C122.861 271.8 122.9 271.633 122.97 271.478C123.04 271.324 123.139 271.184 123.263 271.068C123.387 270.952 123.533 270.861 123.691 270.801C123.85 270.741 124.02 270.713 124.189 270.718C124.359 270.724 124.526 270.762 124.681 270.832C124.836 270.902 124.976 271.001 125.092 271.125C125.785 271.859 126.506 272.588 127.218 273.304C127.338 273.423 127.433 273.564 127.498 273.72C127.563 273.876 127.597 274.043 127.597 274.212C127.597 274.381 127.563 274.548 127.498 274.704C127.433 274.86 127.338 275.001 127.218 275.12C127.096 275.244 126.949 275.342 126.786 275.407C126.624 275.472 126.45 275.502 126.275 275.496H126.299ZM280.574 271.007C280.327 271.002 280.088 270.927 279.883 270.79C279.678 270.654 279.517 270.462 279.418 270.237C279.319 270.012 279.286 269.763 279.324 269.52C279.362 269.277 279.468 269.05 279.631 268.866C280.305 268.113 280.974 267.341 281.625 266.565C281.845 266.303 282.16 266.139 282.501 266.109C282.842 266.079 283.182 266.185 283.444 266.405C283.707 266.624 283.871 266.939 283.901 267.28C283.931 267.62 283.824 267.959 283.604 268.221C282.935 269.012 282.247 269.807 281.559 270.574C281.433 270.716 281.278 270.829 281.103 270.904C280.929 270.979 280.74 271.014 280.55 271.007H280.574ZM120.016 268.706C119.827 268.705 119.641 268.662 119.47 268.581C119.3 268.499 119.15 268.381 119.03 268.235C118.361 267.445 117.696 266.635 117.055 265.826C116.95 265.693 116.873 265.541 116.827 265.379C116.78 265.216 116.767 265.046 116.786 264.879C116.806 264.711 116.859 264.548 116.941 264.401C117.024 264.253 117.135 264.124 117.267 264.019C117.4 263.914 117.552 263.836 117.715 263.79C117.878 263.744 118.048 263.731 118.216 263.75C118.384 263.77 118.547 263.823 118.695 263.905C118.843 263.987 118.973 264.098 119.077 264.231C119.704 265.016 120.355 265.807 121.005 266.584C121.162 266.772 121.261 267 121.293 267.243C121.324 267.485 121.285 267.732 121.182 267.953C121.078 268.175 120.913 268.362 120.707 268.494C120.5 268.625 120.26 268.696 120.016 268.696V268.706ZM286.409 263.859C286.17 263.86 285.935 263.793 285.731 263.668C285.527 263.543 285.362 263.363 285.255 263.15C285.148 262.936 285.102 262.697 285.124 262.459C285.145 262.221 285.233 261.993 285.377 261.802C285.985 260.993 286.583 260.165 287.168 259.341C287.372 259.083 287.668 258.913 287.994 258.865C288.32 258.818 288.652 258.896 288.922 259.085C289.192 259.274 289.38 259.559 289.446 259.881C289.512 260.203 289.453 260.539 289.28 260.819C288.686 261.661 288.068 262.513 287.446 263.341C287.325 263.503 287.168 263.634 286.987 263.724C286.806 263.814 286.606 263.86 286.404 263.859H286.409ZM114.359 261.402C114.151 261.403 113.946 261.354 113.762 261.259C113.577 261.164 113.418 261.026 113.298 260.856C112.705 260.009 112.115 259.148 111.545 258.287C111.385 258.002 111.339 257.668 111.417 257.351C111.494 257.033 111.689 256.757 111.963 256.578C112.236 256.399 112.567 256.33 112.889 256.385C113.212 256.44 113.501 256.616 113.699 256.875C114.255 257.713 114.83 258.56 115.41 259.384C115.508 259.522 115.577 259.678 115.615 259.842C115.652 260.007 115.656 260.178 115.627 260.344C115.599 260.511 115.537 260.67 115.446 260.813C115.356 260.956 115.238 261.079 115.099 261.176C114.886 261.321 114.635 261.4 114.378 261.402H114.359ZM291.594 256.226C291.354 256.225 291.12 256.158 290.915 256.033C290.771 255.945 290.645 255.829 290.546 255.692C290.447 255.555 290.375 255.4 290.336 255.236C290.297 255.071 290.291 254.9 290.319 254.734C290.346 254.567 290.406 254.407 290.496 254.264C291.029 253.402 291.556 252.527 292.066 251.652C292.244 251.371 292.525 251.171 292.848 251.092C293.172 251.013 293.513 251.062 293.801 251.228C294.09 251.394 294.302 251.665 294.395 251.985C294.488 252.304 294.454 252.647 294.3 252.941C293.777 253.835 293.239 254.734 292.692 255.614C292.579 255.799 292.422 255.952 292.234 256.059C292.046 256.167 291.834 256.226 291.618 256.231L291.594 256.226ZM109.396 253.647C109.169 253.648 108.947 253.589 108.751 253.477C108.555 253.364 108.392 253.202 108.278 253.007C107.76 252.113 107.246 251.205 106.756 250.296C106.593 249.996 106.557 249.644 106.655 249.317C106.752 248.99 106.976 248.715 107.277 248.553C107.577 248.391 107.93 248.354 108.258 248.452C108.585 248.549 108.861 248.773 109.023 249.073C109.495 249.958 110.004 250.847 110.513 251.718C110.625 251.913 110.684 252.135 110.683 252.361C110.682 252.586 110.623 252.808 110.51 253.003C110.397 253.198 110.234 253.36 110.039 253.473C109.843 253.586 109.621 253.646 109.396 253.647ZM296.143 248.179C295.941 248.179 295.742 248.13 295.563 248.038C295.412 247.963 295.277 247.859 295.166 247.731C295.055 247.604 294.97 247.456 294.917 247.296C294.863 247.136 294.842 246.967 294.854 246.798C294.867 246.63 294.912 246.466 294.988 246.315C295.459 245.416 295.893 244.494 296.322 243.576C296.466 243.264 296.729 243.022 297.052 242.904C297.375 242.785 297.732 242.799 298.045 242.944C298.357 243.088 298.6 243.35 298.719 243.672C298.838 243.995 298.823 244.352 298.679 244.664C298.24 245.605 297.779 246.546 297.312 247.487C297.201 247.699 297.033 247.876 296.826 247.998C296.619 248.119 296.383 248.18 296.143 248.174V248.179ZM105.116 245.487C104.87 245.488 104.629 245.418 104.422 245.287C104.214 245.155 104.05 244.966 103.947 244.744C103.508 243.802 103.074 242.861 102.664 241.92C102.568 241.616 102.588 241.287 102.721 240.997C102.853 240.707 103.089 240.476 103.382 240.349C103.675 240.222 104.005 240.208 104.307 240.31C104.61 240.411 104.864 240.621 105.021 240.899C105.422 241.84 105.841 242.753 106.27 243.661C106.342 243.814 106.383 243.98 106.39 244.148C106.398 244.317 106.372 244.485 106.314 244.644C106.256 244.803 106.168 244.948 106.053 245.073C105.939 245.197 105.801 245.298 105.648 245.369C105.481 245.447 105.3 245.487 105.116 245.487ZM299.942 239.751C299.781 239.749 299.621 239.717 299.471 239.656C299.313 239.595 299.169 239.502 299.047 239.385C298.925 239.267 298.828 239.127 298.761 238.971C298.694 238.816 298.659 238.649 298.657 238.48C298.655 238.311 298.686 238.143 298.75 237.986C299.122 237.045 299.49 236.104 299.834 235.162C299.96 234.854 300.2 234.606 300.505 234.471C300.809 234.335 301.155 234.323 301.469 234.436C301.782 234.549 302.04 234.779 302.188 235.078C302.336 235.376 302.362 235.72 302.261 236.038C301.908 237.012 301.531 237.995 301.149 238.955C301.049 239.192 300.881 239.394 300.666 239.536C300.452 239.677 300.2 239.752 299.942 239.751ZM101.566 236.993C101.302 236.992 101.044 236.91 100.828 236.759C100.611 236.607 100.446 236.394 100.355 236.146C100.001 235.176 99.6523 234.188 99.3271 233.209C99.2323 232.888 99.2662 232.543 99.4217 232.247C99.5771 231.95 99.842 231.726 100.16 231.621C100.479 231.515 100.825 231.538 101.127 231.683C101.429 231.829 101.663 232.086 101.778 232.4C102.094 233.341 102.433 234.315 102.782 235.266C102.898 235.587 102.881 235.94 102.736 236.249C102.591 236.557 102.33 236.796 102.009 236.913C101.868 236.967 101.718 236.994 101.566 236.993ZM302.982 231.031C302.858 231.03 302.735 231.012 302.615 230.979C302.288 230.881 302.013 230.657 301.85 230.358C301.688 230.058 301.651 229.706 301.747 229.379C302.035 228.414 302.313 227.431 302.577 226.456C302.615 226.286 302.686 226.126 302.787 225.984C302.889 225.842 303.018 225.723 303.167 225.632C303.316 225.542 303.482 225.482 303.654 225.457C303.827 225.432 304.003 225.443 304.171 225.487C304.34 225.532 304.497 225.611 304.635 225.718C304.772 225.825 304.886 225.959 304.97 226.112C305.054 226.264 305.106 226.432 305.124 226.606C305.141 226.779 305.123 226.954 305.071 227.12C304.802 228.118 304.514 229.129 304.222 230.113C304.142 230.379 303.978 230.612 303.755 230.777C303.531 230.942 303.261 231.031 302.982 231.031ZM98.7756 228.207C98.4935 228.208 98.2189 228.116 97.9941 227.946C97.7692 227.776 97.6066 227.537 97.5312 227.266C97.2625 226.268 97.0032 225.252 96.7628 224.249C96.6899 223.919 96.7499 223.574 96.9298 223.287C97.1097 223 97.3952 222.796 97.7247 222.718C98.0543 222.639 98.4015 222.693 98.6915 222.868C98.9815 223.043 99.1912 223.324 99.2752 223.652C99.5109 224.635 99.7466 225.624 100.025 226.598C100.113 226.928 100.066 227.279 99.8941 227.575C99.7226 227.87 99.4407 228.086 99.1103 228.174C99.0003 228.197 98.8879 228.207 98.7756 228.202V228.207ZM305.236 222.089C305.147 222.089 305.059 222.081 304.972 222.066C304.637 221.997 304.343 221.798 304.155 221.513C303.967 221.228 303.899 220.88 303.968 220.546C304.17 219.558 304.364 218.555 304.538 217.562C304.613 217.242 304.808 216.961 305.083 216.78C305.358 216.598 305.693 216.528 306.018 216.585C306.343 216.641 306.634 216.82 306.831 217.084C307.028 217.348 307.117 217.678 307.079 218.005C306.9 219.026 306.706 220.052 306.494 221.064C306.436 221.352 306.28 221.611 306.052 221.798C305.825 221.985 305.54 222.088 305.245 222.089H305.236ZM96.7581 219.205C96.4557 219.203 96.1634 219.096 95.9318 218.901C95.7003 218.707 95.544 218.438 95.4901 218.141C95.311 217.129 95.146 216.094 94.9905 215.068C94.9526 214.735 95.0459 214.401 95.2506 214.136C95.4554 213.87 95.7555 213.695 96.0875 213.647C96.4195 213.598 96.7572 213.681 97.0293 213.877C97.3014 214.073 97.4865 214.367 97.5453 214.696C97.6962 215.699 97.8564 216.706 98.0167 217.694C98.0465 217.86 98.043 218.031 98.0064 218.196C97.9699 218.361 97.901 218.517 97.8037 218.655C97.7064 218.793 97.5827 218.911 97.4396 219.001C97.2966 219.092 97.1371 219.153 96.9702 219.181C96.9034 219.195 96.8356 219.202 96.7675 219.205H96.7581ZM306.706 212.988H306.555C306.219 212.949 305.911 212.779 305.699 212.515C305.487 212.25 305.388 211.913 305.424 211.576C305.537 210.579 305.641 209.562 305.731 208.555C305.778 208.23 305.949 207.935 306.207 207.732C306.465 207.528 306.791 207.43 307.119 207.458C307.447 207.486 307.752 207.638 307.972 207.883C308.191 208.129 308.308 208.448 308.3 208.776C308.21 209.807 308.106 210.847 307.988 211.873C307.945 212.182 307.792 212.465 307.556 212.67C307.321 212.875 307.019 212.988 306.706 212.988ZM95.5608 210.061C95.2391 210.061 94.929 209.941 94.6917 209.724C94.4543 209.507 94.307 209.209 94.2787 208.889C94.1892 207.864 94.109 206.819 94.0477 205.788C94.029 205.446 94.1471 205.111 94.376 204.856C94.605 204.601 94.9261 204.447 95.2686 204.428C95.6111 204.41 95.9471 204.527 96.2026 204.756C96.458 204.985 96.6121 205.305 96.6309 205.647C96.6921 206.654 96.7676 207.671 96.8524 208.673C96.8706 208.843 96.8544 209.015 96.8049 209.179C96.7554 209.342 96.6735 209.495 96.5641 209.626C96.4547 209.758 96.3199 209.866 96.1679 209.945C96.0158 210.024 95.8495 210.071 95.6787 210.085L95.5608 210.061ZM307.366 203.793H307.333C307.164 203.788 306.998 203.75 306.844 203.681C306.689 203.612 306.55 203.513 306.434 203.39C306.318 203.267 306.228 203.123 306.167 202.965C306.107 202.807 306.079 202.639 306.084 202.471C306.112 201.464 306.127 200.442 306.127 199.435V199.176C306.146 198.849 306.291 198.541 306.53 198.315C306.77 198.09 307.087 197.965 307.416 197.965C307.745 197.965 308.061 198.09 308.301 198.315C308.541 198.541 308.685 198.849 308.705 199.176V199.44C308.705 200.475 308.705 201.52 308.662 202.555C308.65 202.889 308.508 203.206 308.266 203.437C308.024 203.668 307.701 203.796 307.366 203.793ZM95.1555 200.852C94.8137 200.852 94.4859 200.717 94.2439 200.476C94.0018 200.235 93.8652 199.908 93.8639 199.567V199.44C93.8639 198.447 93.8639 197.449 93.9063 196.456C93.9332 196.128 94.0853 195.822 94.3313 195.601C94.5774 195.381 94.8986 195.263 95.229 195.272C95.5594 195.281 95.8737 195.416 96.1073 195.65C96.3409 195.883 96.476 196.197 96.4847 196.527C96.4564 197.492 96.447 198.471 96.447 199.435V199.567C96.4458 199.908 96.3091 200.235 96.0671 200.476C95.825 200.717 95.4972 200.852 95.1555 200.852ZM307.22 194.311C306.891 194.311 306.575 194.186 306.336 193.961C306.097 193.736 305.953 193.429 305.933 193.101C305.872 192.094 305.797 191.073 305.707 190.075C305.695 189.746 305.811 189.424 306.029 189.177C306.248 188.929 306.553 188.775 306.882 188.745C307.211 188.716 307.539 188.813 307.798 189.018C308.058 189.222 308.229 189.518 308.276 189.845C308.37 190.871 308.446 191.915 308.507 192.951C308.526 193.291 308.41 193.625 308.183 193.88C307.956 194.135 307.637 194.29 307.295 194.311H307.22ZM95.542 191.642H95.4289C95.2586 191.628 95.0929 191.579 94.9414 191.5C94.79 191.421 94.6558 191.313 94.5466 191.181C94.4374 191.05 94.3554 190.898 94.3054 190.735C94.2554 190.572 94.2383 190.4 94.2552 190.231C94.34 189.205 94.4437 188.165 94.5615 187.139C94.6003 186.799 94.7728 186.488 95.0411 186.275C95.3094 186.062 95.6515 185.964 95.9921 186.002C96.3328 186.041 96.6441 186.213 96.8576 186.481C97.0711 186.749 97.1693 187.091 97.1305 187.431C97.0127 188.433 96.9137 189.449 96.8241 190.452C96.8003 190.775 96.655 191.078 96.4172 191.298C96.1794 191.519 95.8667 191.642 95.542 191.642ZM306.268 185.144C305.958 185.143 305.659 185.032 305.424 184.83C305.19 184.628 305.036 184.348 304.991 184.042C304.844 183.049 304.679 182.038 304.519 181.049C304.457 180.713 304.531 180.366 304.725 180.084C304.919 179.802 305.217 179.608 305.554 179.546C305.891 179.483 306.239 179.557 306.521 179.751C306.804 179.945 306.997 180.242 307.06 180.579C307.244 181.595 307.413 182.626 307.564 183.652C307.589 183.819 307.58 183.989 307.539 184.153C307.497 184.317 307.424 184.471 307.323 184.607C307.222 184.742 307.095 184.857 306.949 184.943C306.804 185.029 306.643 185.086 306.475 185.111L306.268 185.144ZM96.7251 182.499C96.6514 182.506 96.5773 182.506 96.5036 182.499C96.3366 182.47 96.1769 182.409 96.0337 182.319C95.8904 182.229 95.7664 182.111 95.6687 181.973C95.5711 181.835 95.5017 181.679 95.4646 181.514C95.4275 181.349 95.4233 181.178 95.4524 181.012C95.6315 179.995 95.8248 178.969 96.0322 177.953C96.1042 177.622 96.304 177.332 96.5883 177.147C96.8726 176.961 97.2186 176.895 97.5513 176.963C97.8841 177.03 98.1768 177.226 98.3663 177.507C98.5557 177.788 98.6265 178.133 98.5635 178.466C98.3608 179.459 98.1675 180.461 97.9978 181.454C97.9407 181.749 97.7824 182.015 97.55 182.205C97.3177 182.396 97.0259 182.5 96.7251 182.499ZM304.505 176.089C304.215 176.09 303.933 175.992 303.706 175.813C303.478 175.634 303.318 175.383 303.251 175.101C303.015 174.127 302.78 173.139 302.502 172.16C302.458 171.997 302.446 171.827 302.468 171.659C302.49 171.492 302.545 171.33 302.629 171.184C302.714 171.037 302.827 170.909 302.961 170.806C303.095 170.703 303.248 170.627 303.411 170.584C303.575 170.54 303.745 170.528 303.913 170.55C304.081 170.572 304.243 170.627 304.389 170.711C304.536 170.795 304.665 170.908 304.768 171.042C304.871 171.176 304.947 171.329 304.991 171.492C305.264 172.489 305.523 173.506 305.759 174.508C305.799 174.672 305.806 174.841 305.781 175.008C305.755 175.174 305.697 175.334 305.609 175.478C305.522 175.621 305.406 175.747 305.27 175.846C305.134 175.945 304.98 176.017 304.816 176.056C304.714 176.08 304.61 176.091 304.505 176.089ZM98.7002 173.492C98.5873 173.491 98.4749 173.477 98.3655 173.449C98.202 173.406 98.0487 173.331 97.9143 173.229C97.7798 173.127 97.6669 172.999 97.582 172.853C97.4971 172.707 97.4418 172.546 97.4193 172.378C97.3969 172.211 97.4076 172.041 97.451 171.878C97.715 170.88 98.0025 169.873 98.2995 168.88C98.4057 168.563 98.6312 168.299 98.9284 168.145C99.2256 167.991 99.5712 167.958 99.8923 168.053C100.213 168.148 100.485 168.364 100.649 168.655C100.814 168.947 100.859 169.291 100.774 169.614C100.482 170.584 100.204 171.567 99.9446 172.536C99.8729 172.809 99.713 173.051 99.4897 173.224C99.2663 173.396 98.9921 173.491 98.7096 173.492H98.7002ZM301.964 167.224C301.694 167.225 301.43 167.141 301.21 166.984C300.99 166.827 300.825 166.604 300.739 166.348C300.418 165.407 300.079 164.428 299.73 163.482C299.612 163.161 299.628 162.806 299.772 162.496C299.917 162.186 300.179 161.946 300.501 161.828C300.823 161.711 301.178 161.726 301.489 161.87C301.799 162.015 302.04 162.276 302.158 162.598C302.511 163.567 302.86 164.555 303.19 165.534C303.244 165.694 303.265 165.863 303.253 166.032C303.241 166.2 303.196 166.364 303.121 166.515C303.045 166.666 302.94 166.801 302.812 166.911C302.684 167.021 302.535 167.105 302.374 167.158C302.245 167.201 302.11 167.224 301.974 167.224H301.964ZM101.477 164.706C101.327 164.706 101.179 164.681 101.038 164.631C100.879 164.573 100.733 164.485 100.608 164.371C100.483 164.258 100.381 164.12 100.309 163.967C100.238 163.814 100.197 163.649 100.189 163.48C100.182 163.311 100.207 163.142 100.265 162.984C100.619 162.009 100.991 161.031 101.373 160.066C101.427 159.898 101.515 159.743 101.631 159.61C101.747 159.478 101.89 159.37 102.049 159.295C102.209 159.219 102.382 159.177 102.558 159.171C102.735 159.165 102.911 159.195 103.075 159.26C103.239 159.324 103.389 159.422 103.514 159.546C103.639 159.67 103.737 159.819 103.802 159.983C103.868 160.146 103.899 160.322 103.894 160.498C103.888 160.674 103.847 160.847 103.772 161.007C103.4 161.948 103.037 162.889 102.688 163.854C102.599 164.103 102.434 164.319 102.217 164.472C102.001 164.624 101.742 164.706 101.477 164.706ZM298.665 158.635C298.413 158.637 298.167 158.564 297.957 158.427C297.747 158.29 297.581 158.094 297.482 157.864C297.076 156.922 296.657 156.014 296.228 155.106C296.083 154.794 296.068 154.437 296.186 154.114C296.305 153.791 296.547 153.528 296.859 153.384C297.172 153.239 297.529 153.224 297.853 153.342C298.176 153.46 298.44 153.702 298.585 154.014C299.023 154.955 299.452 155.896 299.867 156.838C299.935 156.993 299.971 157.16 299.974 157.329C299.977 157.498 299.947 157.666 299.885 157.824C299.822 157.981 299.73 158.125 299.612 158.246C299.494 158.368 299.353 158.465 299.197 158.532C299.028 158.599 298.847 158.631 298.665 158.626V158.635ZM105.017 156.169C104.8 156.168 104.588 156.112 104.399 156.007C104.21 155.903 104.05 155.753 103.934 155.571C103.818 155.389 103.749 155.181 103.734 154.966C103.719 154.751 103.758 154.535 103.848 154.339C104.291 153.398 104.748 152.456 105.21 151.515C105.368 151.218 105.636 150.994 105.957 150.892C106.278 150.789 106.627 150.816 106.928 150.967C107.23 151.117 107.46 151.379 107.571 151.697C107.681 152.015 107.663 152.364 107.52 152.668C107.048 153.562 106.619 154.485 106.19 155.407C106.086 155.631 105.921 155.821 105.713 155.954C105.505 156.087 105.264 156.159 105.017 156.16V156.169ZM294.606 150.358C294.374 150.357 294.146 150.295 293.946 150.176C293.746 150.058 293.582 149.888 293.47 149.685C292.999 148.8 292.485 147.911 291.981 147.045C291.884 146.898 291.818 146.734 291.787 146.561C291.757 146.388 291.761 146.211 291.802 146.04C291.842 145.869 291.916 145.709 292.021 145.568C292.126 145.427 292.258 145.308 292.41 145.22C292.562 145.132 292.73 145.076 292.905 145.055C293.079 145.034 293.256 145.049 293.424 145.098C293.593 145.148 293.75 145.231 293.885 145.344C294.02 145.456 294.131 145.594 294.21 145.751C294.729 146.64 295.243 147.553 295.738 148.456C295.84 148.652 295.891 148.87 295.885 149.09C295.878 149.311 295.816 149.526 295.702 149.715C295.588 149.904 295.428 150.061 295.236 150.17C295.044 150.279 294.827 150.337 294.606 150.339V150.358ZM109.282 147.967C109.057 147.966 108.836 147.905 108.641 147.792C108.446 147.678 108.284 147.516 108.172 147.321C108.059 147.126 108 146.905 108 146.68C107.999 146.454 108.058 146.233 108.17 146.038C108.688 145.139 109.226 144.24 109.773 143.36C109.96 143.088 110.246 142.898 110.57 142.83C110.894 142.761 111.232 142.82 111.514 142.993C111.796 143.167 112 143.442 112.085 143.761C112.17 144.081 112.128 144.421 111.969 144.711C111.437 145.567 110.913 146.447 110.404 147.322C110.291 147.517 110.129 147.68 109.934 147.793C109.739 147.906 109.518 147.966 109.292 147.967H109.282ZM289.845 142.466C289.632 142.466 289.421 142.413 289.233 142.312C289.044 142.211 288.884 142.065 288.766 141.887C288.21 141.049 287.63 140.202 287.05 139.384C286.867 139.104 286.801 138.764 286.864 138.436C286.927 138.108 287.116 137.817 287.389 137.625C287.663 137.433 288.001 137.354 288.332 137.406C288.662 137.457 288.96 137.635 289.162 137.901C289.756 138.744 290.35 139.609 290.92 140.471C291.047 140.665 291.12 140.889 291.13 141.121C291.14 141.353 291.087 141.583 290.977 141.787C290.867 141.991 290.704 142.162 290.505 142.282C290.305 142.401 290.078 142.465 289.845 142.466ZM114.26 140.184C113.996 140.184 113.739 140.102 113.525 139.948C113.245 139.754 113.054 139.456 112.994 139.12C112.933 138.785 113.009 138.44 113.204 138.16C113.798 137.318 114.416 136.466 115.033 135.633C115.242 135.373 115.544 135.203 115.875 135.16C116.206 135.118 116.542 135.205 116.81 135.403C117.078 135.602 117.259 135.896 117.315 136.225C117.37 136.554 117.296 136.892 117.107 137.167C116.499 137.981 115.9 138.809 115.321 139.633C115.203 139.802 115.045 139.941 114.862 140.036C114.68 140.132 114.476 140.183 114.27 140.184H114.26ZM284.425 135.007C284.231 135.009 284.04 134.967 283.865 134.886C283.689 134.805 283.534 134.685 283.411 134.536C282.784 133.751 282.138 132.96 281.483 132.184C281.284 131.92 281.194 131.59 281.231 131.262C281.269 130.934 281.431 130.633 281.684 130.42C281.937 130.208 282.262 130.101 282.592 130.12C282.923 130.14 283.232 130.286 283.458 130.527C284.128 131.318 284.792 132.127 285.433 132.932C285.584 133.122 285.678 133.35 285.704 133.59C285.731 133.831 285.689 134.074 285.584 134.292C285.479 134.51 285.314 134.694 285.109 134.823C284.904 134.952 284.667 135.02 284.425 135.021V135.007ZM119.917 132.856C119.672 132.856 119.432 132.785 119.225 132.654C119.019 132.522 118.854 132.335 118.751 132.113C118.647 131.892 118.608 131.645 118.639 131.403C118.671 131.16 118.77 130.932 118.927 130.744C119.596 129.953 120.284 129.158 120.968 128.391C121.194 128.135 121.513 127.979 121.854 127.958C122.195 127.937 122.531 128.052 122.787 128.278C123.043 128.504 123.199 128.822 123.221 129.162C123.242 129.503 123.127 129.838 122.9 130.094C122.226 130.847 121.557 131.624 120.906 132.395C120.785 132.542 120.632 132.66 120.459 132.741C120.287 132.822 120.098 132.863 119.907 132.861L119.917 132.856ZM278.363 128.047C278.186 128.048 278.011 128.012 277.849 127.943C277.687 127.873 277.541 127.771 277.42 127.642C276.722 126.908 276.006 126.179 275.294 125.468C275.174 125.349 275.079 125.207 275.014 125.051C274.949 124.895 274.916 124.728 274.916 124.559C274.915 124.39 274.949 124.223 275.013 124.067C275.078 123.911 275.172 123.769 275.292 123.649C275.411 123.53 275.553 123.435 275.709 123.37C275.866 123.305 276.033 123.272 276.202 123.272C276.371 123.271 276.539 123.304 276.695 123.369C276.852 123.433 276.994 123.528 277.114 123.647C277.849 124.376 278.58 125.125 279.296 125.878C279.468 126.061 279.582 126.291 279.625 126.538C279.668 126.786 279.637 127.04 279.537 127.271C279.437 127.501 279.272 127.697 279.061 127.835C278.851 127.973 278.605 128.047 278.353 128.047H278.363ZM126.167 126.052C125.913 126.05 125.665 125.974 125.454 125.833C125.244 125.692 125.079 125.492 124.981 125.258C124.884 125.024 124.858 124.766 124.906 124.518C124.954 124.269 125.075 124.04 125.252 123.859C125.983 123.129 126.737 122.4 127.491 121.689C127.615 121.573 127.761 121.483 127.92 121.422C128.079 121.362 128.248 121.334 128.418 121.34C128.587 121.345 128.755 121.383 128.909 121.453C129.064 121.523 129.204 121.622 129.32 121.746C129.437 121.869 129.528 122.015 129.588 122.173C129.648 122.332 129.676 122.501 129.671 122.671C129.666 122.84 129.627 123.007 129.557 123.162C129.487 123.316 129.388 123.456 129.264 123.572C128.528 124.264 127.793 124.984 127.081 125.689C126.834 125.929 126.502 126.061 126.157 126.056L126.167 126.052ZM271.712 121.633C271.396 121.633 271.09 121.518 270.854 121.308C270.095 120.635 269.322 119.972 268.544 119.322C268.404 119.217 268.287 119.084 268.2 118.932C268.113 118.78 268.058 118.612 268.038 118.438C268.018 118.264 268.034 118.088 268.085 117.92C268.136 117.753 268.22 117.597 268.333 117.463C268.445 117.329 268.584 117.219 268.741 117.141C268.898 117.062 269.069 117.016 269.244 117.006C269.419 116.995 269.594 117.02 269.759 117.079C269.924 117.139 270.075 117.231 270.203 117.351C270.995 118.014 271.792 118.696 272.56 119.384C272.757 119.556 272.896 119.785 272.96 120.039C273.023 120.293 273.006 120.561 272.913 120.805C272.82 121.05 272.654 121.26 272.437 121.408C272.221 121.556 271.965 121.635 271.702 121.633H271.712ZM132.973 119.821C132.709 119.823 132.45 119.742 132.233 119.592C132.016 119.441 131.85 119.227 131.759 118.979C131.668 118.731 131.655 118.461 131.723 118.206C131.791 117.951 131.937 117.723 132.139 117.553C132.931 116.889 133.742 116.226 134.557 115.581C134.826 115.389 135.159 115.308 135.487 115.354C135.814 115.4 136.112 115.569 136.318 115.827C136.524 116.085 136.623 116.413 136.594 116.742C136.566 117.071 136.412 117.376 136.165 117.595C135.368 118.226 134.576 118.871 133.808 119.52C133.574 119.716 133.279 119.823 132.973 119.821ZM264.514 115.816C264.238 115.817 263.969 115.729 263.746 115.567C262.935 114.965 262.101 114.367 261.271 113.788C261.121 113.696 260.992 113.574 260.891 113.43C260.791 113.286 260.72 113.123 260.685 112.951C260.649 112.779 260.649 112.602 260.685 112.43C260.721 112.258 260.791 112.095 260.892 111.951C260.993 111.807 261.122 111.686 261.272 111.594C261.422 111.501 261.589 111.441 261.763 111.415C261.937 111.39 262.114 111.4 262.284 111.446C262.454 111.491 262.613 111.571 262.751 111.68C263.599 112.273 264.457 112.885 265.287 113.501C265.504 113.663 265.665 113.888 265.746 114.146C265.828 114.404 265.825 114.681 265.74 114.938C265.654 115.195 265.489 115.418 265.269 115.575C265.049 115.733 264.785 115.817 264.514 115.816ZM140.303 114.198C140.025 114.204 139.751 114.12 139.525 113.958C139.298 113.797 139.13 113.566 139.046 113.3C138.962 113.035 138.966 112.75 139.059 112.487C139.151 112.225 139.327 111.999 139.559 111.845C140.407 111.252 141.274 110.664 142.137 110.094C142.422 109.917 142.765 109.858 143.093 109.929C143.421 110.001 143.708 110.198 143.893 110.478C144.077 110.758 144.145 111.099 144.081 111.429C144.017 111.758 143.827 112.049 143.551 112.24C142.707 112.795 141.859 113.369 141.034 113.948C140.822 114.105 140.567 114.192 140.303 114.198ZM256.845 110.645C256.606 110.645 256.373 110.578 256.171 110.452C255.303 109.92 254.422 109.398 253.545 108.894C253.399 108.809 253.271 108.697 253.168 108.563C253.065 108.429 252.99 108.275 252.946 108.112C252.903 107.949 252.892 107.779 252.914 107.611C252.936 107.444 252.991 107.283 253.076 107.136C253.161 106.99 253.274 106.862 253.408 106.76C253.543 106.657 253.696 106.582 253.859 106.538C254.023 106.495 254.193 106.484 254.361 106.506C254.529 106.529 254.69 106.584 254.837 106.668C255.732 107.181 256.637 107.718 257.524 108.264C257.668 108.352 257.794 108.468 257.893 108.604C257.993 108.741 258.064 108.896 258.103 109.06C258.143 109.225 258.149 109.395 258.123 109.562C258.096 109.729 258.037 109.889 257.948 110.033C257.831 110.22 257.668 110.374 257.475 110.481C257.282 110.588 257.065 110.644 256.845 110.645ZM148.09 109.233C147.808 109.232 147.533 109.138 147.309 108.966C147.085 108.794 146.923 108.553 146.849 108.28C146.775 108.008 146.793 107.719 146.9 107.457C147.007 107.196 147.196 106.976 147.44 106.833C148.335 106.315 149.25 105.807 150.16 105.313C150.309 105.222 150.476 105.161 150.649 105.136C150.823 105.111 150.999 105.122 151.169 105.167C151.338 105.212 151.496 105.292 151.634 105.4C151.772 105.509 151.886 105.644 151.969 105.798C152.053 105.951 152.104 106.121 152.12 106.295C152.136 106.469 152.117 106.645 152.062 106.811C152.008 106.978 151.921 107.131 151.805 107.263C151.689 107.394 151.548 107.501 151.39 107.576C150.504 108.047 149.613 108.551 148.736 109.059C148.54 109.173 148.317 109.233 148.09 109.233ZM248.747 106.151C248.547 106.151 248.35 106.105 248.172 106.014C247.267 105.544 246.338 105.12 245.419 104.692C245.266 104.62 245.128 104.52 245.014 104.395C244.9 104.271 244.811 104.125 244.753 103.966C244.696 103.808 244.67 103.639 244.677 103.471C244.684 103.302 244.725 103.136 244.797 102.984C244.868 102.831 244.969 102.693 245.094 102.579C245.218 102.465 245.364 102.377 245.523 102.319C245.682 102.261 245.851 102.236 246.02 102.243C246.189 102.25 246.354 102.291 246.508 102.362C247.45 102.795 248.393 103.252 249.336 103.718C249.595 103.847 249.803 104.061 249.925 104.323C250.048 104.586 250.078 104.882 250.011 105.163C249.943 105.445 249.783 105.696 249.555 105.875C249.328 106.054 249.046 106.151 248.756 106.151H248.747ZM156.278 104.965C155.984 104.967 155.698 104.868 155.468 104.685C155.237 104.502 155.077 104.246 155.013 103.959C154.949 103.673 154.985 103.373 155.116 103.109C155.247 102.846 155.464 102.636 155.731 102.513C156.674 102.075 157.617 101.647 158.559 101.238C158.716 101.161 158.885 101.117 159.059 101.108C159.233 101.099 159.406 101.125 159.569 101.185C159.733 101.245 159.882 101.337 160.008 101.456C160.135 101.575 160.236 101.719 160.305 101.878C160.375 102.037 160.411 102.208 160.413 102.382C160.414 102.555 160.38 102.727 160.313 102.887C160.246 103.047 160.147 103.192 160.022 103.313C159.897 103.434 159.749 103.528 159.587 103.591C158.644 103.991 157.73 104.409 156.815 104.838C156.647 104.917 156.464 104.96 156.278 104.965ZM240.286 102.381C240.124 102.381 239.964 102.351 239.814 102.292C238.871 101.92 237.929 101.558 236.953 101.214C236.794 101.156 236.648 101.068 236.523 100.954C236.398 100.84 236.297 100.702 236.225 100.549C236.154 100.396 236.113 100.23 236.106 100.061C236.098 99.8922 236.124 99.7235 236.182 99.5647C236.24 99.4059 236.329 99.26 236.443 99.1354C236.557 99.0108 236.695 98.9098 236.849 98.8384C237.002 98.7669 237.168 98.7264 237.337 98.719C237.506 98.7116 237.675 98.7375 237.834 98.7953C238.81 99.1482 239.8 99.52 240.766 99.9012C241.045 100.011 241.277 100.214 241.422 100.476C241.566 100.738 241.615 101.042 241.559 101.336C241.503 101.63 241.346 101.895 241.116 102.086C240.885 102.277 240.595 102.381 240.295 102.381H240.286ZM164.8 101.44C164.496 101.442 164.202 101.337 163.968 101.143C163.735 100.949 163.577 100.678 163.524 100.38C163.471 100.081 163.526 99.7731 163.678 99.5107C163.831 99.2483 164.071 99.0482 164.357 98.9459C165.328 98.5929 166.323 98.2494 167.308 97.92C167.468 97.8665 167.638 97.8451 167.806 97.857C167.975 97.8689 168.14 97.9138 168.291 97.9892C168.442 98.0645 168.577 98.1689 168.688 98.2963C168.798 98.4237 168.883 98.5717 168.937 98.7318C168.99 98.8918 169.012 99.0608 169 99.2292C168.988 99.3975 168.943 99.5619 168.867 99.7128C168.792 99.8638 168.687 99.9985 168.56 100.109C168.432 100.22 168.284 100.304 168.124 100.358C167.181 100.678 166.196 101.016 165.248 101.36C165.104 101.409 164.952 101.431 164.8 101.426V101.44ZM231.527 99.3835C231.403 99.3825 231.28 99.3651 231.16 99.3318C230.189 99.0447 229.204 98.7671 228.223 98.5082C228.06 98.4647 227.907 98.3894 227.772 98.2867C227.638 98.184 227.525 98.0559 227.441 97.9098C227.356 97.7636 227.301 97.6022 227.279 97.4348C227.256 97.2674 227.267 97.0973 227.311 96.9341C227.355 96.771 227.43 96.618 227.533 96.4839C227.636 96.3499 227.764 96.2374 227.911 96.1528C228.057 96.0683 228.219 96.0133 228.386 95.9911C228.554 95.969 228.724 95.98 228.888 96.0235C229.887 96.2871 230.901 96.5741 231.895 96.8659C232.193 96.9529 232.449 97.1443 232.617 97.4049C232.784 97.6655 232.852 97.9778 232.807 98.2842C232.762 98.5906 232.608 98.8706 232.373 99.0726C232.138 99.2746 231.838 99.385 231.527 99.3835ZM173.624 98.6541C173.311 98.6558 173.008 98.5434 172.772 98.3379C172.536 98.1324 172.383 97.8479 172.342 97.5378C172.301 97.2278 172.374 96.9134 172.549 96.6537C172.723 96.3939 172.987 96.2067 173.29 96.1271C174.294 95.8588 175.312 95.6 176.321 95.3647C176.487 95.3199 176.661 95.3089 176.831 95.3323C177.002 95.3558 177.166 95.4132 177.314 95.5012C177.462 95.5893 177.591 95.7061 177.693 95.8447C177.795 95.9834 177.868 96.1411 177.908 96.3084C177.948 96.4758 177.953 96.6495 177.925 96.8191C177.896 96.9887 177.834 97.1508 177.741 97.2958C177.648 97.4409 177.527 97.5659 177.385 97.6634C177.243 97.7609 177.083 97.829 176.915 97.8635C175.934 98.0988 174.94 98.3341 173.964 98.6118C173.852 98.6348 173.738 98.6443 173.624 98.64V98.6541ZM222.548 97.1529C222.461 97.1529 222.374 97.1434 222.289 97.1247C221.299 96.9271 220.29 96.7341 219.291 96.5647C219.124 96.5357 218.965 96.4742 218.822 96.3837C218.68 96.2933 218.556 96.1756 218.459 96.0375C218.362 95.8995 218.293 95.7436 218.256 95.5789C218.219 95.4142 218.215 95.2439 218.244 95.0776C218.273 94.9114 218.335 94.7525 218.426 94.6101C218.516 94.4676 218.634 94.3443 218.772 94.2473C218.911 94.1503 219.067 94.0814 219.232 94.0447C219.397 94.0079 219.567 94.0039 219.734 94.0329C220.752 94.2071 221.789 94.4 222.802 94.6071C223.117 94.668 223.398 94.8443 223.59 95.1012C223.781 95.3581 223.87 95.6772 223.838 95.9959C223.806 96.3146 223.656 96.6099 223.417 96.8239C223.179 97.038 222.869 97.1553 222.548 97.1529ZM182.661 96.6541C182.341 96.6495 182.034 96.5268 181.8 96.3096C181.566 96.0924 181.421 95.7962 181.393 95.4784C181.365 95.1605 181.455 94.8435 181.648 94.5887C181.84 94.3339 182.12 94.1593 182.434 94.0988C183.452 93.92 184.489 93.7553 185.522 93.6047C185.691 93.5747 185.865 93.5789 186.033 93.6172C186.201 93.6555 186.36 93.7271 186.5 93.8278C186.639 93.9284 186.757 94.056 186.847 94.203C186.936 94.35 186.995 94.5135 187.02 94.6837C187.045 94.8539 187.035 95.0273 186.992 95.1937C186.948 95.3602 186.872 95.5162 186.767 95.6526C186.662 95.7889 186.531 95.9029 186.381 95.9876C186.231 96.0723 186.065 96.1262 185.894 96.1459C184.89 96.2918 183.877 96.4565 182.887 96.6165C182.812 96.6313 182.737 96.6392 182.661 96.64V96.6541ZM213.403 95.7129H213.257C212.248 95.6 211.23 95.4965 210.222 95.4118C210.053 95.3972 209.889 95.3498 209.739 95.272C209.589 95.1943 209.456 95.0878 209.347 94.9587C209.239 94.8295 209.156 94.6803 209.105 94.5194C209.054 94.3586 209.036 94.1893 209.05 94.0212C209.065 93.8531 209.112 93.6895 209.19 93.5398C209.268 93.39 209.375 93.2571 209.504 93.1485C209.633 93.0399 209.783 92.9578 209.944 92.9069C210.105 92.856 210.275 92.8372 210.443 92.8518C211.471 92.9365 212.517 93.04 213.549 93.1577C213.885 93.1837 214.197 93.3401 214.419 93.5932C214.64 93.8462 214.753 94.1759 214.734 94.5114C214.715 94.847 214.565 95.1617 214.316 95.388C214.068 95.6144 213.74 95.7344 213.403 95.7224V95.7129ZM191.848 95.4306C191.522 95.4201 191.212 95.287 190.981 95.0581C190.749 94.8291 190.613 94.5212 190.599 94.1961C190.585 93.871 190.695 93.5528 190.907 93.3052C191.118 93.0576 191.415 92.899 191.739 92.8612C192.771 92.7718 193.818 92.6965 194.855 92.6353C195.025 92.6228 195.196 92.6441 195.358 92.6982C195.52 92.7522 195.669 92.8378 195.797 92.95C195.926 93.0623 196.03 93.1988 196.105 93.3518C196.18 93.5048 196.224 93.6712 196.234 93.8412C196.244 94.0113 196.22 94.1816 196.164 94.3423C196.107 94.503 196.019 94.6509 195.905 94.7773C195.791 94.9038 195.652 95.0062 195.498 95.0788C195.343 95.1514 195.176 95.1926 195.006 95.2C193.997 95.2612 192.974 95.3365 191.965 95.4259L191.848 95.4306ZM204.183 95.0541H204.15C203.208 95.0259 202.265 95.0165 201.299 95.0165H201.101C200.925 95.0271 200.749 95.0017 200.583 94.9418C200.417 94.8819 200.266 94.7888 200.137 94.6683C200.009 94.5477 199.907 94.4023 199.837 94.2408C199.767 94.0793 199.731 93.9053 199.731 93.7294C199.731 93.5535 199.767 93.3795 199.837 93.218C199.907 93.0566 200.009 92.9111 200.137 92.7905C200.266 92.67 200.417 92.5769 200.583 92.517C200.749 92.4571 200.925 92.4317 201.101 92.4424H201.275C202.218 92.4424 203.222 92.4424 204.193 92.4847C204.534 92.4897 204.859 92.6298 205.097 92.8743C205.335 93.1188 205.466 93.4475 205.461 93.7882C205.456 94.129 205.315 94.4538 205.071 94.6911C204.826 94.9285 204.496 95.0591 204.155 95.0541H204.183Z" fill="#4EC9FD"/>
<path d="M391.746 198.626H384.897V204.951H392.529V206.833H382.63V189.304H392.142V191.186H384.897V196.729H391.746V198.626Z" fill="#4EC9FD"/>
<path d="M393 207.318H382.159V188.838H392.613V191.661H385.369V196.264H392.218V199.087H385.369V204.475H393V207.318ZM383.101 206.376H392.057V205.412H384.426V198.155H391.275V197.214H384.426V190.734H391.666V189.793H383.097L383.101 206.376Z" fill="#4EC9FD"/>
<path d="M195.303 18.0141V0.470581H197.787L203.443 9.34587C204.617 11.1803 205.67 13.0886 206.597 15.0588H206.649C206.436 12.7059 206.385 10.5788 206.385 7.8494V0.470581H208.529V18.0141H206.229L200.634 9.11058C199.418 7.22676 198.316 5.27189 197.334 3.25646H197.254C197.386 5.46823 197.438 7.57646 197.438 10.4941V18.0141H195.303Z" fill="#4EC9FD"/>
<path d="M209.001 18.4847H205.989L200.238 9.36C199.267 7.82118 198.48 6.48471 197.834 5.27529C197.895 6.82824 197.919 8.47059 197.919 10.5176V18.4847H194.831V0H198.046L203.83 9.09647C204.655 10.3953 205.381 11.6329 206.022 12.8612C205.937 11.2282 205.913 9.61882 205.913 7.83529V0H209.001V18.4847ZM206.488 17.5435H208.058V0.941177H206.856V7.81177C206.856 10.3671 206.903 12.5694 207.115 14.9788L207.144 15.2988L206.37 15.68L206.168 15.2424C205.246 13.2943 204.199 11.408 203.033 9.59529L197.528 0.941177H195.774V17.5435H196.976V10.5176C196.976 7.58588 196.924 5.50118 196.792 3.30824V2.95059L197.612 2.67294L197.792 3.05412C198.758 5.05509 199.847 6.99447 201.053 8.86118L206.488 17.5435Z" fill="#4EC9FD"/>
<path d="M197.146 396.513C198.379 397.248 199.786 397.643 201.223 397.656C203.547 397.656 204.909 396.433 204.909 394.663C204.909 393.021 203.967 392.085 201.61 391.176C198.734 390.16 196.957 388.678 196.957 386.202C196.957 383.468 199.229 381.44 202.651 381.44C204.003 381.393 205.344 381.689 206.55 382.301L205.918 384.146C204.891 383.595 203.742 383.309 202.576 383.313C200.172 383.313 199.276 384.725 199.276 385.944C199.276 387.581 200.346 388.391 202.779 389.327C205.758 390.471 207.271 391.901 207.271 394.48C207.271 397.186 205.258 399.529 201.105 399.529C199.404 399.529 197.551 399.059 196.608 398.409L197.146 396.513Z" fill="#4EC9FD"/>
<path d="M201.068 400C199.328 400 197.372 399.529 196.311 398.8L196.019 398.607L196.872 395.784L197.396 396.104C198.554 396.793 199.875 397.163 201.223 397.177C203.208 397.177 204.438 396.235 204.438 394.654C204.438 393.454 203.967 392.569 201.421 391.605C198.089 390.428 196.467 388.659 196.467 386.193C196.467 383.111 199.003 380.96 202.633 380.96C204.067 380.915 205.489 381.239 206.762 381.901L207.101 382.089L206.158 384.838L205.687 384.569C204.728 384.054 203.655 383.787 202.567 383.793C200.464 383.793 199.738 384.955 199.738 385.953C199.738 387.247 200.516 387.962 202.939 388.899C206.3 390.188 207.733 391.864 207.733 394.489C207.704 397.026 205.989 400 201.068 400ZM197.127 398.198C198.362 398.769 199.707 399.063 201.068 399.059C204.527 399.059 206.762 397.261 206.762 394.48C206.762 392.245 205.588 390.922 202.571 389.774C200.163 388.833 198.767 387.92 198.767 385.953C198.767 384.461 199.95 382.852 202.538 382.852C203.595 382.848 204.641 383.068 205.607 383.497L205.932 382.555C204.889 382.116 203.764 381.904 202.633 381.934C199.559 381.934 197.41 383.699 197.41 386.226C197.41 388.273 198.786 389.713 201.746 390.758C203.934 391.595 205.381 392.579 205.381 394.687C205.381 396.795 203.75 398.151 201.223 398.151C199.902 398.134 198.603 397.812 197.429 397.209L197.127 398.198Z" fill="#4EC9FD"/>
<path d="M2.98849 194.249L4.65714 200.654C5.02481 202.066 5.36419 203.36 5.59988 204.664H5.68001C5.96755 203.388 6.38235 202.033 6.80187 200.678L8.86647 194.249H10.7991L12.76 200.551C13.2314 202.061 13.599 203.374 13.8866 204.664H13.962C14.2114 203.284 14.534 201.919 14.9283 200.574L16.7336 194.249H19.0056L14.9283 206.847H12.8401L10.9075 200.838C10.4612 199.477 10.0852 198.095 9.78093 196.696H9.72908C9.42793 198.106 9.04389 199.497 8.57894 200.861L6.54262 206.847H4.44974L0.636353 194.249H2.98849Z" fill="#4EC9FD"/>
<path d="M15.2724 207.318H12.496L10.455 200.979C10.1957 200.155 9.98362 199.393 9.75736 198.626C9.52167 199.482 9.28599 200.278 9.02673 201.021L6.87729 207.332H4.10092L0 193.779H3.35144L5.11436 200.536C5.31705 201.308 5.51031 202.047 5.68001 202.772C5.89212 202.028 6.1231 201.28 6.35407 200.541L8.52237 193.779H11.1479L13.1984 200.409C13.4529 201.233 13.6697 201.991 13.8677 202.701C14.0515 201.934 14.2589 201.176 14.4616 200.447L16.3471 193.779H19.6467L15.2724 207.318ZM13.1842 206.376H14.5983L18.3693 194.715H17.0919L15.3855 200.706C14.9955 202.031 14.6807 203.378 14.4428 204.739L14.3768 205.134H13.5095L13.4246 204.767C13.1465 203.529 12.793 202.235 12.3122 200.687L10.455 194.72H9.21057L7.24967 200.838C6.84429 202.155 6.42006 203.52 6.13724 204.781L6.0571 205.148H5.18507L5.11908 204.758C4.88811 203.482 4.54872 202.188 4.17634 200.814L2.62082 194.72H1.26799L4.79855 206.381H6.21266L8.14056 200.711C8.59892 199.364 8.97823 197.993 9.27656 196.602L9.35669 196.231H10.1722L10.2523 196.602C10.5528 197.985 10.9241 199.352 11.3647 200.696L13.1842 206.376Z" fill="#4EC9FD"/>
<path d="M339.74 53.5059L346.669 46.6353L347.815 47.7788L346.928 53.8588C346.749 55.1053 346.485 56.338 346.136 57.5483H346.169C347.024 56.5178 347.933 55.5344 348.894 54.6024L351.798 51.7271L352.783 52.7153L345.854 59.5859L344.793 58.5271L345.736 52.4612C345.92 51.175 346.186 49.9018 346.532 48.6494H346.485C345.675 49.5906 344.864 50.4236 343.714 51.5671L340.753 54.5036L339.74 53.5059Z" fill="#4EC9FD"/>
<path d="M355.116 62.4141L351.958 59.2565L349.46 61.7365L352.976 65.2518L352.226 65.9953L347.664 61.4306L354.593 54.56L358.977 58.9459L358.241 59.6894L354.904 56.3529L352.717 58.5223L355.87 61.68L355.116 62.4141Z" fill="#4EC9FD"/>
<path d="M53.4392 65.0824L46.5431 58.1788L47.6932 57.04L53.7927 57.9435C55.0452 58.1175 56.2834 58.3817 57.4977 58.7341V58.7012C56.4651 57.849 55.4785 56.9426 54.5422 55.9859L51.6574 53.0965L52.6473 52.1129L59.5482 59.0165L58.4829 60.0706L52.3928 59.1294C51.1006 58.9497 49.8219 58.684 48.5652 58.3341V58.3812C49.508 59.1953 50.347 60 51.4925 61.1435L54.4432 64.0941L53.4392 65.0824Z" fill="#4EC9FD"/>
<path d="M62.7299 55.8729L53.7739 51.0212L54.8863 49.92L59.3408 52.4518C60.4438 53.0729 61.5232 53.7176 62.334 54.2353H62.3575C61.7285 53.2478 61.151 52.2284 60.6276 51.1812L58.2236 46.5882L59.3266 45.4965L63.8188 48.0141C64.8265 48.5641 65.8051 49.1657 66.7507 49.8165C66.1662 48.8753 65.6289 47.8965 65.0208 46.7812L62.6168 42.2353L63.6915 41.1671L68.3062 50.3529L67.2032 51.4447L62.5838 48.8706C61.621 48.3544 60.6921 47.7775 59.8027 47.1435H59.7744C60.3751 48.0694 60.9182 49.0312 61.4007 50.0235L63.8282 54.7671L62.7299 55.8729Z" fill="#4EC9FD"/>
<path d="M69.9843 343.228C69.7008 342.354 69.2166 341.558 68.5702 340.904C67.4955 339.831 66.3877 339.68 65.6901 340.376C64.9925 341.073 65.1056 341.816 65.841 343.271C66.7837 344.993 66.9958 346.395 66.0201 347.365C64.9406 348.433 63.0929 348.179 61.5138 346.602C60.8806 346.004 60.3839 345.277 60.0573 344.471L61.0754 344.038C61.3406 344.745 61.7554 345.387 62.2915 345.92C63.3993 347.026 64.3844 346.889 64.8558 346.419C65.5063 345.774 65.3272 344.965 64.5824 343.478C63.6397 341.656 63.5265 340.395 64.5447 339.388C65.5628 338.381 67.4672 338.339 69.3809 340.254C70.105 340.958 70.6623 341.815 71.0119 342.762L69.9843 343.228Z" fill="#4EC9FD"/>
<path d="M63.6727 334.739L58.7987 343.68L57.691 342.588L60.2364 338.146C60.8586 337.049 61.5044 335.976 62.0276 335.167H62.004C61.0124 335.795 59.9881 336.37 58.9354 336.889L54.3584 339.271L53.2648 338.127L55.7961 333.657C56.3468 332.651 56.951 331.675 57.6061 330.734H57.5779C56.6351 331.318 55.6499 331.854 54.5328 332.456L49.9652 334.828L48.8952 333.755L58.1246 329.186L59.2182 330.282L56.6351 334.885C56.1184 335.846 55.5389 336.772 54.9005 337.657L54.9288 337.68C55.8559 337.083 56.8193 336.544 57.8135 336.066L62.5744 333.647L63.6727 334.739Z" fill="#4EC9FD"/>
<path d="M338.472 65.6424L327.48 76.5929L328.823 77.9294L339.815 66.9788L338.472 65.6424Z" fill="#4EC9FD"/>
<path d="M79.7416 323.341L68.7493 334.287L70.0927 335.624L81.0851 324.673L79.7416 323.341Z" fill="#4EC9FD"/>
<path d="M326.433 320.96L325.094 322.296L336.087 333.242L337.426 331.911L326.433 320.96Z" fill="#4EC9FD"/>
<path d="M66.3642 64.6023L77.3565 75.5482L78.6952 74.2117L67.7029 63.2659L66.3642 64.6023Z" fill="#4EC9FD"/>
<path d="M350.35 331.346C349.465 331.627 348.658 332.11 347.994 332.758C346.919 333.821 346.768 334.927 347.466 335.624C348.163 336.32 348.913 336.207 350.374 335.473C352.104 334.555 353.509 334.32 354.48 335.294C355.554 336.372 355.305 338.212 353.716 339.784C353.116 340.416 352.386 340.911 351.576 341.233L351.171 340.235C351.878 339.973 352.521 339.562 353.056 339.031C354.15 337.915 353.999 336.941 353.527 336.471C352.886 335.826 352.071 336 350.577 336.748C348.748 337.666 347.485 337.798 346.471 336.781C345.458 335.765 345.415 333.873 347.338 331.967C348.047 331.244 348.908 330.69 349.86 330.344L350.35 331.346Z" fill="#4EC9FD"/>
<path d="M342.172 343.736L345.34 340.593L342.851 338.108L339.32 341.609L338.576 340.861L343.157 336.315L350.058 343.219L345.656 347.581L344.906 346.824L348.258 343.501L346.075 341.318L342.908 344.471L342.172 343.736Z" fill="#4EC9FD"/>
<path d="M210.622 197.398C210.628 199.364 210.049 201.287 208.959 202.924C207.869 204.562 206.317 205.839 204.499 206.596C202.681 207.352 200.68 207.553 198.748 207.173C196.816 206.792 195.04 205.848 193.646 204.46C192.251 203.072 191.301 201.302 190.914 199.374C190.528 197.447 190.724 195.448 191.476 193.631C192.228 191.814 193.503 190.261 195.14 189.168C196.777 188.075 198.702 187.492 200.672 187.492C201.977 187.49 203.269 187.745 204.475 188.241C205.682 188.738 206.778 189.467 207.702 190.387C208.626 191.307 209.359 192.4 209.86 193.602C210.362 194.805 210.62 196.095 210.622 197.398Z" fill="#CFD1D2"/>
<path d="M210.061 197.398C210.066 199.253 209.519 201.067 208.49 202.612C207.461 204.157 205.997 205.362 204.281 206.075C202.566 206.788 200.677 206.977 198.854 206.618C197.031 206.259 195.356 205.368 194.04 204.058C192.725 202.748 191.828 201.078 191.464 199.259C191.1 197.44 191.284 195.554 191.994 193.839C192.704 192.125 193.908 190.66 195.453 189.629C196.997 188.597 198.814 188.047 200.672 188.047C201.903 188.045 203.123 188.286 204.262 188.755C205.4 189.224 206.435 189.912 207.307 190.78C208.179 191.649 208.871 192.68 209.344 193.815C209.816 194.951 210.06 196.168 210.061 197.398Z" fill="#919395"/>
<path d="M200.672 202.682C203.603 202.682 205.979 200.316 205.979 197.398C205.979 194.479 203.603 192.113 200.672 192.113C197.74 192.113 195.364 194.479 195.364 197.398C195.364 200.316 197.74 202.682 200.672 202.682Z" fill="#CFD1D2"/>
<path d="M200.672 201.991C203.218 201.991 205.282 199.934 205.282 197.398C205.282 194.861 203.218 192.805 200.672 192.805C198.126 192.805 196.062 194.861 196.062 197.398C196.062 199.934 198.126 201.991 200.672 201.991Z" fill="#A5A6A9"/>
<path d="M204.575 197.398C204.577 198.164 204.352 198.914 203.928 199.553C203.503 200.192 202.898 200.691 202.19 200.986C201.481 201.281 200.701 201.36 199.947 201.212C199.194 201.064 198.501 200.696 197.957 200.155C197.413 199.614 197.042 198.924 196.891 198.173C196.741 197.421 196.817 196.641 197.11 195.933C197.403 195.224 197.9 194.619 198.538 194.193C199.177 193.766 199.927 193.539 200.695 193.539C201.722 193.539 202.706 193.945 203.433 194.668C204.16 195.391 204.571 196.373 204.575 197.398Z" fill="#09ACF4"/>
<path d="M203.396 197.398C203.398 197.936 203.24 198.463 202.942 198.911C202.643 199.36 202.219 199.71 201.721 199.917C201.223 200.125 200.675 200.18 200.146 200.076C199.617 199.972 199.13 199.714 198.748 199.334C198.367 198.954 198.106 198.469 198 197.941C197.894 197.413 197.948 196.866 198.154 196.368C198.36 195.871 198.709 195.445 199.157 195.146C199.605 194.847 200.132 194.687 200.672 194.687C201.029 194.686 201.383 194.756 201.713 194.892C202.043 195.028 202.343 195.227 202.596 195.479C202.849 195.731 203.05 196.03 203.187 196.359C203.325 196.688 203.396 197.041 203.396 197.398Z" fill="#4EC9FD"/>
<path d="M203.929 190.194C204.744 190.537 205.47 191.048 206.067 191.699C206.663 192.35 207.118 193.128 207.406 193.989C207.693 194.849 207.807 195.775 207.741 196.714C207.676 197.652 207.431 198.585 207.023 199.46L308.407 241.928L210.78 184.951C209.113 183.685 207.154 182.853 205.049 182.516C202.945 182.179 200.749 182.346 198.628 183.005C196.507 183.663 194.514 184.797 192.8 186.32C191.086 187.843 189.695 189.715 188.732 191.798L194.617 194.263C195.024 193.388 195.587 192.589 196.276 191.911C196.964 191.233 197.763 190.689 198.628 190.312C199.492 189.934 200.406 189.729 201.315 189.709C202.225 189.689 203.113 189.854 203.929 190.194Z" fill="#6CB2D9"/>
<path d="M195.142 211C196.125 211.409 197.162 211.696 198.23 211.855L308.411 241.929L207.023 199.46C206.2 201.224 204.758 202.642 203.013 203.402C201.268 204.163 199.363 204.202 197.718 203.513C196.073 202.824 194.822 201.462 194.24 199.728C193.659 197.993 193.794 196.027 194.617 194.263L188.732 191.798C187.022 195.456 186.736 199.535 187.938 203.136C189.14 206.736 191.732 209.565 195.142 211Z" fill="#7BD0FF"/>
<path d="M197.95 203.628C196.304 202.936 195.053 201.571 194.472 199.834C193.891 198.096 194.028 196.128 194.853 194.362L93.4685 151.893L191.101 208.868C192.767 210.134 194.726 210.967 196.831 211.305C198.935 211.642 201.131 211.476 203.252 210.818C205.374 210.159 207.367 209.026 209.081 207.504C210.795 205.981 212.187 204.108 213.151 202.026L207.262 199.56C206.855 200.435 206.292 201.234 205.603 201.912C204.915 202.59 204.116 203.133 203.251 203.511C202.387 203.889 201.474 204.094 200.564 204.114C199.654 204.134 198.766 203.969 197.95 203.628Z" fill="#FF204E"/>
<path d="M206.733 182.821C205.75 182.412 204.714 182.125 203.645 181.966L93.4685 151.893L194.853 194.362C195.247 193.467 195.804 192.646 196.493 191.947C197.181 191.249 197.985 190.686 198.859 190.294C199.733 189.901 200.659 189.686 201.582 189.661C202.505 189.636 203.407 189.802 204.234 190.149C205.061 190.495 205.798 191.016 206.399 191.679C207.001 192.343 207.457 193.137 207.739 194.013C208.021 194.89 208.124 195.833 208.042 196.785C207.96 197.738 207.695 198.681 207.262 199.56L213.15 202.026C213.998 200.214 214.504 198.28 214.64 196.334C214.776 194.388 214.539 192.468 213.943 190.685C213.347 188.901 212.404 187.289 211.167 185.94C209.929 184.591 208.423 183.531 206.733 182.821Z" fill="#C70930"/>
<path d="M71.9688 157.061L87.7463 163.67C87.892 163.731 88.0579 163.738 88.2174 163.689C88.377 163.641 88.5211 163.54 88.6268 163.403L90.5453 160.928L90.5353 157.575L94.7962 155.45L96.4668 153.296C96.506 153.247 96.5393 153.193 96.566 153.136C96.5932 153.078 96.6133 153.017 96.6258 152.955L99.2409 140.642C99.2801 140.474 99.2639 140.303 99.195 140.156C99.126 140.009 99.0084 139.896 98.8613 139.834L83.0838 133.225L80.3063 146.308L71.9688 157.061Z" fill="#505050"/>
<path d="M80.3063 146.308L96.5728 153.121C96.6 153.063 96.6202 153.002 96.6327 152.94L99.2477 140.627C99.283 140.461 99.2642 140.293 99.1941 140.149C99.1241 140.005 99.0069 139.894 98.8613 139.834L83.0838 133.225L80.3063 146.308Z" fill="#373737"/>
<path d="M73.7469 157.806L77.7101 159.466L85.9177 148.877C85.9929 148.774 86.0471 148.658 86.0767 148.536L88.8132 135.655L84.85 133.995L82.081 147.051L73.7469 157.806Z" fill="#FFE132"/>
<path d="M86.0921 148.512L88.8286 135.631L84.862 133.97L82.081 147.051L86.0237 148.702C86.0527 148.641 86.0756 148.577 86.0921 148.512Z" fill="#FAC80F"/>
<path d="M80.7953 146.513C80.7686 146.569 80.7353 146.623 80.6961 146.673L72.8492 156.795C72.743 156.93 72.5991 157.029 72.4401 157.077C72.2811 157.124 72.1162 157.117 71.9713 157.056C71.8263 156.995 71.7096 156.884 71.6395 156.741C71.5694 156.598 71.5499 156.43 71.584 156.265L74.1922 143.966C74.217 143.843 74.2717 143.725 74.3513 143.625L82.1981 133.503C82.3043 133.367 82.4483 133.268 82.6072 133.221C82.7662 133.173 82.9311 133.181 83.0761 133.241C83.221 133.302 83.3377 133.413 83.4078 133.556C83.478 133.699 83.4975 133.867 83.4633 134.033L80.8602 146.321C80.847 146.387 80.8251 146.451 80.7953 146.513Z" fill="#646464"/>
<path d="M80.8603 146.32L83.4753 134.007C83.5095 133.841 83.49 133.674 83.4199 133.53C83.3498 133.387 83.2331 133.276 83.0881 133.216C82.9432 133.155 82.7782 133.148 82.6193 133.195C82.4603 133.242 82.3164 133.341 82.2101 133.477L74.3633 143.599C74.3233 143.649 74.2894 143.704 74.2624 143.763L80.8005 146.501C80.8277 146.443 80.8478 146.382 80.8603 146.32Z" fill="#505050"/>
<path d="M87.4101 152.987L84.139 157.206C84.0669 157.299 84.015 157.406 83.9872 157.519C83.9594 157.632 83.9566 157.748 83.9788 157.857C84.0011 157.967 84.0478 158.067 84.1156 158.151C84.1833 158.235 84.2703 158.3 84.3698 158.341L90.5454 160.928L94.7928 155.449L88.2958 152.727C88.1502 152.664 87.9837 152.656 87.8231 152.703C87.6625 152.75 87.517 152.85 87.4101 152.987Z" fill="#FFE132"/>
<path d="M91.5268 159.665L93.8147 156.713L88.1486 154.34L85.8607 157.292L91.5268 159.665Z" fill="#FAC80F"/>
</g>
<defs>
<clipPath id="clip0_1_4">
<rect width="393" height="400" fill="white"/>
</clipPath>
</defs>
</svg>
