<svg xmlns="http://www.w3.org/2000/svg" viewBox="0 0 1920 1080" id="man-finding-location-in-map"><g fill="#2A94F4"><ellipse cx="988.811" cy="1003.201" opacity=".11" rx="670.294" ry="76.799"></ellipse><path d="M549.624 991.251c-30.846 18.884-253.404 49.305-339.234-274.459s44.739-438.226 232.968-517.905c197.934-83.787 320.57 48.544 397.237-61.307 136.92-196.184 615.047-180.46 681.773 63.351 73.569 268.814-65.395 256.158 101.472 451.271 69.805 81.622-41.422 406.801-353.901 345.609s-684.145-28.704-720.315-6.56z" opacity=".11"></path></g><path fill="#CCE9FF" d="m790.151 965.229 377.079 60.03V283.553l-377.079-60.03z"></path><path fill="#FFBE55" d="m790.151 965.229 377.079 60.03V283.553l-377.079-60.03z" opacity=".13"></path><path fill="#CCE9FF" d="m790.151 965.229-377.078 60.03V283.553l377.078-60.03zM1544.308 965.229l-377.078 60.03V283.553l377.078-60.03z"></path><path fill="#F7F7F7" d="M790.151 508.489 413.073 560.6v-35.762l377.078-52.112zM790.151 736.348 413.073 788.46v-35.763l377.078-52.111zM1544.308 508.489 1167.23 560.6v-35.762l377.078-52.112z"></path><ellipse cx="964.272" cy="631.796" fill="#0E538C" rx="79.94" ry="84.996"></ellipse><path fill="#F7F7F7" d="M1544.308 736.348 1167.23 788.46v-35.763l377.078-52.111zM790.151 508.489 1167.23 560.6v-35.762l-377.079-52.112zM790.151 736.348l377.079 52.112v-35.763l-377.079-52.111zM536.11 1005.672l-31.351 4.852V268.957l31.351-4.991zM713.909 724.813l-31.351 4.851V240.747l31.351-4.991z"></path><path fill="#F7F7F7" d="m957.46 992.959 31.351 4.852V255.963l-31.351-4.991zM1198.581 1020.629l-31.351 4.852V283.914l31.351-4.991zM1349.218 747.496l-31.351 4.852V260.252l31.351-4.991zM1505.172 970.731l-31.351 4.852V716.562l31.351-4.991zM1409.599 986.399l-31.351 4.852V732.229l31.351-4.99zM1301.29 1003.683l-31.351 4.852V749.514l31.351-4.991zM871.946 978.342l-31.351-5.082"></path><path fill="#F7F7F7" d="M964.272 509.141c-63.711 0-115.359 54.914-115.359 122.655S900.561 754.45 964.272 754.45s115.359-54.914 115.359-122.655-51.648-122.654-115.359-122.654zm0 207.65c-44.149 0-79.94-38.054-79.94-84.996s35.79-84.996 79.94-84.996 79.94 38.054 79.94 84.996-35.79 84.996-79.94 84.996z"></path><ellipse cx="964.272" cy="631.796" fill="#CCE9FF" rx="79.94" ry="84.996"></ellipse><ellipse cx="964.272" cy="631.796" fill="#FFBE55" opacity=".86" rx="79.94" ry="84.996"></ellipse><path fill="#FFBE55" d="m1167.255 545.147-.383-.052-381.52-51.515-177.071 20.67-.619-5.3L785.4 488.202l381.803 51.553 163.671-25.378V258.181l5.336-.849V518.95zM612.521 579.656c-18.891 0-50.862-3.159-50.862-14.997 0-11.839 31.971-14.998 50.862-14.998 18.891 0 50.862 3.159 50.862 14.998 0 11.838-31.971 14.997-50.862 14.997zm-43.955-14.997c1.55 2.917 17.553 8.134 43.955 8.134 26.402 0 42.405-5.217 43.955-8.134-1.55-2.917-17.553-8.134-43.955-8.134-26.403 0-42.406 5.217-43.955 8.134z"></path><path fill="#FFBE55" d="M641.292 485.859c0-15.89-12.881-28.771-28.771-28.771s-28.771 12.881-28.771 28.771v.078c.011 3.72.992 7.373 2.642 10.707l26.129 52.801 26.129-52.801c1.65-3.334 2.631-6.987 2.642-10.707v-.078zm-28.771 15.201c-8.395 0-15.201-6.806-15.201-15.201s6.806-15.201 15.201-15.201 15.201 6.806 15.201 15.201-6.806 15.201-15.201 15.201z"></path><path fill="#FCD2B1" d="M627.917 555.064s-14.176-10.302-6.637-27.547c4.309-9.856 8.324 5.811 15.735 8.844 0 0 2.858 1.911.662-1.168s-3.991-3.29-3.762-4.565.755-1.473 2.745-.544c2.974 1.388 3.717 2.059 5.824 5.534 2.107 3.475 9.712 14.648 4.15 18.594s-8.838 11.695-18.717.852zM783.284 505.196h-31.513l3.703-35.452h24.107z"></path><circle cx="767.527" cy="449.906" r="34.034" fill="#FAB9AF"></circle><path fill="#0E538C" d="m700.484 726.416 24.963 276.682h18.277s26.786-189.61 26.786-222.48c0-8.824 4.333-7.57 4.727-5.042.414 2.66 37.5 227.207 37.5 227.207l20.168-.63 1.665-275.737s-25.185-1.334-61.969-1.334-72.117 1.334-72.117 1.334z"></path><path fill="#FFBE55" d="M754.185 493.54s-35.818 4.566-49.999 29.146c-14.181 24.58-17.374 66.697-21.628 72.37-4.254 5.672 11.593 38.641 22.832 23.901 11.238-14.741 17.704-55.619 20.54-62.236 2.836-6.619 28.255-63.181 28.255-63.181zM795.108 498.013s28.289 9.897 34.945 29.928c6.656 20.031 35.097 69.977 34.071 85.89-1.026 15.913-35.619 91.004-35.619 91.004l-9.429-4.711s13.476-79.255 13.37-87.63c-.106-8.375-30.712-30.145-23.689-57.633.423-1.651-41.914-35.319-13.649-56.848z"></path><path fill="#0B4870" d="M767.527 483.94s-19.223 4.24-30.252-6.475c-11.03-10.714-9.454-23.95-17.017-25.841-7.563-1.891-5.987-13.551 0-16.702s14.811-4.412 17.017-15.126c2.206-10.714 32.406-16.072 39.365-9.769 6.959 6.303 15.467 5.357 20.824 12.605 5.357 7.248 4.829 27.936 7.878 34.034 3.782 7.563-13.163 22.766-20.726 24.972s-17.089 2.302-17.089 2.302z"></path><path fill="#FFBE55" d="M834.571 726.416s-38.058 5.336-67.043 5.336-67.043-5.336-67.043-5.336l16.798-187.366c1.413-18.362 20.957-45.671 39.373-45.671h25.394c18.669 0 37.85 27.687 38.936 46.324l13.585 186.713z"></path><path fill="#0B4870" d="M742.478 1020.742h-54.524c-.999 0-1.443-1.256-.665-1.884a83.637 83.637 0 0 1 52.527-18.552h2.662c.585 0 1.059.474 1.059 1.059v18.317c0 .586-.474 1.06-1.059 1.06zM833.511 1020.742h-54.524c-.999 0-1.443-1.256-.665-1.884a83.637 83.637 0 0 1 52.527-18.552h2.662c.585 0 1.059.474 1.059 1.059v18.317a1.058 1.058 0 0 1-1.059 1.06z"></path><path fill="#FFBE55" d="M636.054 560.6s27.329 71.195 64.429 61.941l-7.128-37.481s-34.968-21.168-44.959-32.975l-12.342 8.515z"></path></svg>