<svg xmlns="http://www.w3.org/2000/svg" width="512" height="512" fill="none" id="quran"><path fill="#000" fill-rule="evenodd" d="M112 77c-13.255 0-24 10.745-24 24v35.054l-40.845-20.422C36.517 110.312 24 118.048 24 129.943v157.021a15.999 15.999 0 0 0 11.605 15.384L88 317.318v93.793c0 17.842 18.776 29.445 34.733 21.467L256 365.944l133.267 66.634c15.957 7.978 34.733-3.625 34.733-21.467v-93.793l52.396-14.97A16 16 0 0 0 488 286.964V129.943c0-11.895-12.517-19.631-23.155-14.311L424 136.054V101c0-13.255-10.745-24-24-24h-52.669c-38.172 0-73.17 20.9-91.331 54.254C237.839 97.899 202.841 77 164.669 77H112Zm296 244.89-130.029 37.151 118.451 59.226c5.319 2.659 11.578-1.209 11.578-7.156V321.89Zm-304 89.221V321.89l130.029 37.151-118.451 59.226c-5.319 2.659-11.578-1.209-11.578-7.156Zm320-257.168V229c0 13.255-10.745 24-24 24h-35.949c-34.26 0-64.316 22.845-73.486 55.855A22.044 22.044 0 0 1 269.325 325h-26.483a23.043 23.043 0 0 1-21.86-15.756C209.786 275.656 178.353 253 142.947 253H112c-13.255 0-24-10.745-24-24v-75.057l-48-24v157.021l216 61.714 216-61.714V129.943l-48 24ZM104 197v-96a8 8 0 0 1 8-8h52.669c33.332 0 63.803 18.832 78.709 48.645l4.622 9.244v98.07C228.73 221.696 197.204 205 163.078 205H112a8 8 0 0 1-8-8Zm0 22.634V229a8 8 0 0 0 8 8h30.947c42.293 0 79.84 27.063 93.214 67.184a7.042 7.042 0 0 0 6.681 4.816h26.483a6.045 6.045 0 0 0 5.824-4.427C286.242 264.638 322.603 237 364.051 237H400a8 8 0 0 0 8-8v-9.366a23.946 23.946 0 0 1-8 1.366h-51.078c-34.088 0-65.109 19.687-79.624 50.53l-6.059 12.876a8.001 8.001 0 0 1-14.478 0l-6.059-12.876C228.187 240.687 197.166 221 163.078 221H112c-2.805 0-5.498-.481-8-1.366ZM408 197v-96a8 8 0 0 0-8-8h-52.669c-33.332 0-63.803 18.832-78.709 48.645L264 150.889v98.07C283.27 221.696 314.796 205 348.922 205H400a8 8 0 0 0 8-8Z" clip-rule="evenodd"></path></svg>