<?xml version="1.0" standalone="no"?>
<!DOCTYPE svg PUBLIC "-//W3C//DTD SVG 20010904//EN"
 "http://www.w3.org/TR/2001/REC-SVG-20010904/DTD/svg10.dtd">
<svg version="1.0" xmlns="http://www.w3.org/2000/svg"
 width="64.000000pt" height="64.000000pt" viewBox="0 0 64.000000 64.000000"
 preserveAspectRatio="xMidYMid meet">

<g transform="translate(0.000000,64.000000) scale(0.100000,-0.100000)"
fill="#000000" stroke="none">
<path d="M430 560 c0 -13 5 -20 13 -17 6 2 12 10 12 17 0 7 -6 15 -12 18 -8 2
-13 -5 -13 -18z"/>
<path d="M125 481 c-6 -10 10 -22 127 -105 l68 -47 100 71 c55 39 98 75 95 81
-12 19 -44 8 -113 -41 -39 -27 -76 -50 -82 -50 -6 0 -43 23 -82 50 -69 49
-101 60 -113 41z"/>
<path d="M62 444 c-8 -15 20 -41 191 -171 164 -126 202 -151 209 -138 5 8 6
24 3 35 -3 11 -79 70 -168 131 -89 62 -176 123 -194 136 -29 22 -32 23 -41 7z"/>
<path d="M106 451 c27 -25 259 -181 268 -181 23 1 207 152 204 168 -2 8 -6 16
-9 16 -3 1 -57 -34 -118 -78 -62 -43 -115 -76 -117 -73 -3 3 42 38 100 78 59
39 104 74 102 77 -3 2 -52 -29 -110 -69 l-106 -73 -104 72 c-58 40 -108 72
-112 72 -5 0 -4 -4 2 -9z"/>
<path d="M223 219 c-45 -31 -60 -59 -45 -84 7 -14 17 -10 63 26 30 23 58 45
62 49 4 4 -2 14 -15 22 -22 14 -26 14 -65 -13z"/>
<path d="M64 225 c-4 -9 -2 -21 4 -27 15 -15 44 -1 40 19 -4 23 -36 29 -44 8z"/>
<path d="M550 170 c0 -5 5 -10 10 -10 6 0 10 5 10 10 0 6 -4 10 -10 10 -5 0
-10 -4 -10 -10z"/>
<path d="M335 100 c3 -5 8 -10 11 -10 2 0 4 5 4 10 0 6 -5 10 -11 10 -5 0 -7
-4 -4 -10z"/>
</g>
</svg>
